<svg width="343" height="263" viewBox="0 0 343 263" fill="none" xmlns="http://www.w3.org/2000/svg">
<g filter="url(#filter0_i_35_149)">
<path d="M112.849 43.6665L98.4945 52.5C98.4945 52.5 98.3058 17.5 98.4945 10.5C98.6833 3.50001 107.747 -2.9659 117.995 1.99999C117.995 1.99999 218.495 59.5 231.495 67.5C244.495 75.5 251.495 85.5 238.495 95C225.495 104.5 202.995 116.5 202.995 116.5L185.495 107.5L168.995 97.5L190.495 83.5L123.191 43.5821C119.996 41.6869 116.013 41.7194 112.849 43.6665Z" fill="url(#paint0_linear_35_149)"/>
</g>
<g filter="url(#filter1_i_35_149)">
<path d="M231.029 124.356L245.42 115.5C245.42 115.5 245.609 150.5 245.42 157.5C245.232 164.5 236.168 170.966 225.92 166C225.92 166 125.42 108.5 112.42 100.5C99.4203 92.5 90.9945 82.5 103.995 73C116.995 63.5 137.495 52 137.495 52L169.995 71.5L151.495 84L220.742 124.473C223.929 126.336 227.884 126.291 231.029 124.356Z" fill="url(#paint1_linear_35_149)"/>
</g>
<g filter="url(#filter2_i_35_149)">
<path d="M97.9945 156V114.5L152.995 146.5L117.995 164.5C106.995 170.5 98.9945 164.5 97.9945 156Z" fill="#6CFFFF"/>
</g>
<g filter="url(#filter3_i_35_149)">
<path d="M245.495 10.9262V52.4262L190.495 20.4262L225.495 2.42621C236.495 -3.57379 244.495 2.42621 245.495 10.9262Z" fill="#A867FF"/>
</g>
<path d="M97.6832 243.752H85.6512V200.872H98.4512L110.355 216.936L116.627 226.792H117.459L116.883 217.448V200.872H128.915V243.752H116.115L103.443 227.24L98.0032 218.792H97.1712L97.6832 226.984V243.752ZM153.96 244.392C143.016 244.392 135.336 239.72 135.336 227.624C135.336 217.128 142.952 210.856 153.704 210.856C164.84 210.856 171.944 216.424 171.944 226.792C171.944 227.88 171.88 228.712 171.752 229.864H146.472C146.664 233.768 148.392 234.856 153.512 234.856C158.376 234.856 159.656 234.024 159.656 232.104V231.4H171.688V232.168C171.688 239.336 164.84 244.392 153.96 244.392ZM153.448 220.072C149.032 220.072 147.176 221.032 146.664 223.784H160.296C159.848 221.032 157.928 220.072 153.448 220.072ZM190.332 243.752H175.804L187.836 228.136V227.496L175.804 211.496H190.524L197.116 221.224H197.756L204.092 211.496H218.62L206.588 227.304V227.944L218.62 243.752H203.9L197.308 234.28H196.668L190.332 243.752ZM233.558 244.392C226.262 244.392 222.166 241.064 222.166 235.56C222.166 231.016 225.302 227.752 232.598 227.048L245.718 225.768V225.128C245.718 221.864 244.31 221.352 240.022 221.352C236.054 221.352 234.838 222.12 234.838 224.808V225.064H222.806V224.936C222.806 216.36 229.974 210.856 240.918 210.856C252.182 210.856 257.622 216.36 257.622 225.384V243.752H246.358V236.968H245.718C244.502 241.512 240.534 244.392 233.558 244.392ZM234.262 234.792C234.262 235.816 235.286 236.008 237.142 236.008C242.966 236.008 245.334 235.304 245.654 232.424L235.798 233.576C234.71 233.704 234.262 234.088 234.262 234.792Z" fill="#150524"/>
<defs>
<filter id="filter0_i_35_149" x="98.4106" y="0.248352" width="147.01" height="120.252" filterUnits="userSpaceOnUse" color-interpolation-filters="sRGB">
<feFlood flood-opacity="0" result="BackgroundImageFix"/>
<feBlend mode="normal" in="SourceGraphic" in2="BackgroundImageFix" result="shape"/>
<feColorMatrix in="SourceAlpha" type="matrix" values="0 0 0 0 0 0 0 0 0 0 0 0 0 0 0 0 0 0 127 0" result="hardAlpha"/>
<feOffset dy="4"/>
<feGaussianBlur stdDeviation="2"/>
<feComposite in2="hardAlpha" operator="arithmetic" k2="-1" k3="1"/>
<feColorMatrix type="matrix" values="0 0 0 0 0 0 0 0 0 0 0 0 0 0 0 0 0 0 0.15 0"/>
<feBlend mode="normal" in2="shape" result="effect1_innerShadow_35_149"/>
</filter>
<filter id="filter1_i_35_149" x="97.4958" y="52" width="148.008" height="119.752" filterUnits="userSpaceOnUse" color-interpolation-filters="sRGB">
<feFlood flood-opacity="0" result="BackgroundImageFix"/>
<feBlend mode="normal" in="SourceGraphic" in2="BackgroundImageFix" result="shape"/>
<feColorMatrix in="SourceAlpha" type="matrix" values="0 0 0 0 0 0 0 0 0 0 0 0 0 0 0 0 0 0 127 0" result="hardAlpha"/>
<feOffset dy="4"/>
<feGaussianBlur stdDeviation="2"/>
<feComposite in2="hardAlpha" operator="arithmetic" k2="-1" k3="1"/>
<feColorMatrix type="matrix" values="0 0 0 0 0 0 0 0 0 0 0 0 0 0 0 0 0 0 0.25 0"/>
<feBlend mode="normal" in2="shape" result="effect1_innerShadow_35_149"/>
</filter>
<filter id="filter2_i_35_149" x="97.9945" y="114.5" width="55" height="56.4262" filterUnits="userSpaceOnUse" color-interpolation-filters="sRGB">
<feFlood flood-opacity="0" result="BackgroundImageFix"/>
<feBlend mode="normal" in="SourceGraphic" in2="BackgroundImageFix" result="shape"/>
<feColorMatrix in="SourceAlpha" type="matrix" values="0 0 0 0 0 0 0 0 0 0 0 0 0 0 0 0 0 0 127 0" result="hardAlpha"/>
<feOffset dy="4"/>
<feGaussianBlur stdDeviation="2"/>
<feComposite in2="hardAlpha" operator="arithmetic" k2="-1" k3="1"/>
<feColorMatrix type="matrix" values="0 0 0 0 0 0 0 0 0 0 0 0 0 0 0 0 0 0 0.25 0"/>
<feBlend mode="normal" in2="shape" result="effect1_innerShadow_35_149"/>
</filter>
<filter id="filter3_i_35_149" x="190.495" y="0" width="55" height="56.4262" filterUnits="userSpaceOnUse" color-interpolation-filters="sRGB">
<feFlood flood-opacity="0" result="BackgroundImageFix"/>
<feBlend mode="normal" in="SourceGraphic" in2="BackgroundImageFix" result="shape"/>
<feColorMatrix in="SourceAlpha" type="matrix" values="0 0 0 0 0 0 0 0 0 0 0 0 0 0 0 0 0 0 127 0" result="hardAlpha"/>
<feOffset dy="4"/>
<feGaussianBlur stdDeviation="2"/>
<feComposite in2="hardAlpha" operator="arithmetic" k2="-1" k3="1"/>
<feColorMatrix type="matrix" values="0 0 0 0 0 0 0 0 0 0 0 0 0 0 0 0 0 0 0.25 0"/>
<feBlend mode="normal" in2="shape" result="effect1_innerShadow_35_149"/>
</filter>
<linearGradient id="paint0_linear_35_149" x1="103.495" y1="6" x2="225.995" y2="115" gradientUnits="userSpaceOnUse">
<stop offset="0.0494816" stop-color="#29DBE2"/>
<stop offset="1" stop-color="#005EB7"/>
</linearGradient>
<linearGradient id="paint1_linear_35_149" x1="134.495" y1="57" x2="237.494" y2="165" gradientUnits="userSpaceOnUse">
<stop stop-color="#5817F5"/>
<stop offset="1" stop-color="#A202FA"/>
</linearGradient>
</defs>
</svg>
