<svg width="366" height="366" viewBox="0 0 366 366" fill="none" xmlns="http://www.w3.org/2000/svg">
<path d="M53.6702 121.849C73.6758 86.2077 101.638 96.5142 116.234 107.209C138.194 123.371 159.561 146.788 191.162 146.788C222.469 146.788 231.729 107.121 261.317 108.519C291.402 109.939 311.261 133.685 311.261 162.204C311.261 204.887 295.23 234.408 266.331 247.372C224.395 266.192 169.956 248.895 134.381 232.366C113.314 222.572 72.8047 192.209 58.6112 170.366C53.436 162.453 40.7504 144.877 53.6702 121.849Z" fill="#19B0B6"/>
<path opacity="0.7" d="M53.6702 121.849C73.6758 86.2077 101.638 96.5142 116.234 107.209C138.194 123.371 159.561 146.788 191.162 146.788C222.469 146.788 231.729 107.121 261.317 108.519C291.402 109.939 311.261 133.685 311.261 162.204C311.261 204.887 295.23 234.408 266.331 247.372C224.395 266.192 169.956 248.895 134.381 232.366C113.314 222.572 72.8047 192.209 58.6112 170.366C53.436 162.453 40.7504 144.877 53.6702 121.849Z" fill="white"/>
<path d="M293.356 295.962L303.187 289.228C303.912 288.444 304.469 287.52 304.823 286.513C305.177 285.506 305.32 284.437 305.244 283.372L300.296 215.94L201.944 287.676C188.022 287.676 293.356 295.962 293.356 295.962Z" fill="#19B0B6"/>
<path d="M192.838 326.765C223.963 326.765 249.195 323.884 249.195 320.331C249.195 316.777 223.963 313.896 192.838 313.896C161.713 313.896 136.481 316.777 136.481 320.331C136.481 323.884 161.713 326.765 192.838 326.765Z" fill="#19B0B6"/>
<path d="M31.637 286.761H334.363" stroke="#263238" stroke-width="0.732" stroke-linecap="round" stroke-linejoin="round"/>
<path d="M308.289 99.8302C296.68 88.6419 281.173 82.4097 265.05 82.4525C248.922 82.4082 233.41 88.6404 221.796 99.8302L220.896 100.694V175.863H309.175V100.694L308.289 99.8302ZM303.334 124.718H267.246V88.3597C280.663 88.8432 293.463 94.1115 303.334 103.212V124.718ZM226.766 169.231V129.139H262.854V169.26L226.766 169.231ZM267.246 169.231V129.139H303.334V169.26L267.246 169.231ZM262.854 88.3304V124.718H226.766V103.212C236.637 94.1115 249.437 88.8432 262.854 88.3597V88.3304Z" fill="#19B0B6"/>
<mask id="mask0_23_2657" style="mask-type:luminance" maskUnits="userSpaceOnUse" x="220" y="82" width="90" height="94">
<path d="M308.289 99.8302C296.68 88.6419 281.173 82.4097 265.05 82.4525C248.922 82.4082 233.41 88.6404 221.796 99.8302L220.896 100.694V175.863H309.175V100.694L308.289 99.8302ZM303.334 124.718H267.246V88.3597C280.663 88.8432 293.463 94.1115 303.334 103.212V124.718ZM226.766 169.231V129.139H262.854V169.26L226.766 169.231ZM267.246 169.231V129.139H303.334V169.26L267.246 169.231ZM262.854 88.3304V124.718H226.766V103.212C236.637 94.1115 249.437 88.8432 262.854 88.3597V88.3304Z" fill="white"/>
</mask>
<g mask="url(#mask0_23_2657)">
<path opacity="0.4" d="M308.289 99.8302C296.68 88.6419 281.173 82.4097 265.05 82.4525C248.922 82.4082 233.41 88.6404 221.796 99.8302L220.896 100.694V175.863H309.175V100.694L308.289 99.8302ZM303.334 124.718H267.246V88.3597C280.663 88.8432 293.463 94.1115 303.334 103.212V124.718ZM226.766 169.231V129.139H262.854V169.26L226.766 169.231ZM267.246 169.231V129.139H303.334V169.26L267.246 169.231ZM262.854 88.3304V124.718H226.766V103.212C236.637 94.1115 249.437 88.8432 262.854 88.3597V88.3304Z" fill="white"/>
</g>
<path d="M308.289 99.8302C296.68 88.6419 281.173 82.4097 265.05 82.4525C248.922 82.4082 233.41 88.6404 221.796 99.8302L220.896 100.694V175.863H309.175V100.694L308.289 99.8302ZM303.334 124.718H267.246V88.3597C280.663 88.8432 293.463 94.1115 303.334 103.212V124.718ZM226.766 169.231V129.139H262.854V169.26L226.766 169.231ZM267.246 169.231V129.139H303.334V169.26L267.246 169.231ZM262.854 88.3304V124.718H226.766V103.212C236.637 94.1115 249.437 88.8432 262.854 88.3597V88.3304Z" stroke="#263238" stroke-width="0.549" stroke-linecap="round" stroke-linejoin="round"/>
<path d="M312.118 178.791H217.982V99.4934L218.839 98.637C231.104 86.3991 247.723 79.5262 265.05 79.5262C282.376 79.5262 298.996 86.3991 311.261 98.637L312.118 99.4934V178.791ZM223.838 172.935H306.262V101.931C295.173 91.3046 280.408 85.3721 265.05 85.3721C249.692 85.3721 234.927 91.3046 223.838 101.931V172.935Z" fill="#19B0B6"/>
<mask id="mask1_23_2657" style="mask-type:luminance" maskUnits="userSpaceOnUse" x="217" y="79" width="96" height="100">
<path d="M312.118 178.791H217.982V99.4934L218.839 98.637C231.104 86.3991 247.723 79.5262 265.05 79.5262C282.376 79.5262 298.996 86.3991 311.261 98.637L312.118 99.4934V178.791ZM223.838 172.935H306.262V101.931C295.173 91.3046 280.408 85.3721 265.05 85.3721C249.692 85.3721 234.927 91.3046 223.838 101.931V172.935Z" fill="white"/>
</mask>
<g mask="url(#mask1_23_2657)">
<path opacity="0.7" d="M312.118 178.791H217.982V99.4934L218.839 98.637C231.104 86.3991 247.723 79.5262 265.05 79.5262C282.376 79.5262 298.996 86.3991 311.261 98.637L312.118 99.4934V178.791ZM223.838 172.935H306.262V101.931C295.173 91.3046 280.408 85.3721 265.05 85.3721C249.692 85.3721 234.927 91.3046 223.838 101.931V172.935Z" fill="white"/>
</g>
<path d="M312.118 178.791H217.982V99.4934L218.839 98.637C231.104 86.3991 247.723 79.5262 265.05 79.5262C282.376 79.5262 298.996 86.3991 311.261 98.637L312.118 99.4934V178.791ZM223.838 172.935H306.262V101.931C295.173 91.3046 280.408 85.3721 265.05 85.3721C249.692 85.3721 234.927 91.3046 223.838 101.931V172.935Z" stroke="#263238" stroke-width="0.549" stroke-linecap="round" stroke-linejoin="round"/>
<path d="M144.204 99.8302C132.593 88.6439 117.087 82.4121 100.965 82.4525C84.8418 82.4097 69.3348 88.642 57.7256 99.8302L56.8252 100.694V175.863H145.104V100.694L144.204 99.8302ZM139.248 124.718H103.161V88.3597C116.572 88.8467 129.367 94.1148 139.234 103.212L139.248 124.718ZM62.6666 169.26V129.139H98.7542V169.26H62.6666ZM103.146 169.26V129.139H139.234V169.26H103.146ZM98.7542 88.3597V124.747H62.6666V103.212C72.5368 94.1116 85.3375 88.8432 98.7542 88.3597Z" fill="#19B0B6"/>
<mask id="mask2_23_2657" style="mask-type:luminance" maskUnits="userSpaceOnUse" x="56" y="82" width="90" height="94">
<path d="M144.204 99.8302C132.593 88.6439 117.087 82.4121 100.965 82.4525C84.8418 82.4097 69.3348 88.642 57.7256 99.8302L56.8252 100.694V175.863H145.104V100.694L144.204 99.8302ZM139.248 124.718H103.161V88.3597C116.572 88.8467 129.367 94.1148 139.234 103.212L139.248 124.718ZM62.6666 169.26V129.139H98.7542V169.26H62.6666ZM103.146 169.26V129.139H139.234V169.26H103.146ZM98.7542 88.3597V124.747H62.6666V103.212C72.5368 94.1116 85.3375 88.8432 98.7542 88.3597Z" fill="white"/>
</mask>
<g mask="url(#mask2_23_2657)">
<path opacity="0.4" d="M144.204 99.8302C132.593 88.6439 117.087 82.4121 100.965 82.4525C84.8418 82.4097 69.3348 88.642 57.7256 99.8302L56.8252 100.694V175.863H145.104V100.694L144.204 99.8302ZM139.248 124.718H103.161V88.3597C116.572 88.8467 129.367 94.1148 139.234 103.212L139.248 124.718ZM62.6666 169.26V129.139H98.7542V169.26H62.6666ZM103.146 169.26V129.139H139.234V169.26H103.146ZM98.7542 88.3597V124.747H62.6666V103.212C72.5368 94.1116 85.3375 88.8432 98.7542 88.3597Z" fill="white"/>
</g>
<path d="M144.204 99.8302C132.593 88.6439 117.087 82.4121 100.965 82.4525C84.8418 82.4097 69.3348 88.642 57.7256 99.8302L56.8252 100.694V175.863H145.104V100.694L144.204 99.8302ZM139.248 124.718H103.161V88.3597C116.572 88.8467 129.367 94.1148 139.234 103.212L139.248 124.718ZM62.6666 169.26V129.139H98.7542V169.26H62.6666ZM103.146 169.26V129.139H139.234V169.26H103.146ZM98.7542 88.3597V124.747H62.6666V103.212C72.5368 94.1116 85.3375 88.8432 98.7542 88.3597Z" stroke="#263238" stroke-width="0.549" stroke-linecap="round" stroke-linejoin="round"/>
<path d="M148.018 178.791H53.8826V99.4934L54.739 98.637C67.0045 86.3991 83.6236 79.5262 100.95 79.5262C118.277 79.5262 134.896 86.3991 147.161 98.637L148.018 99.4934V178.791ZM59.7386 172.935H142.162V101.931C131.073 91.3046 116.308 85.3721 100.95 85.3721C85.5919 85.3721 70.8271 91.3046 59.7386 101.931V172.935Z" fill="#19B0B6"/>
<mask id="mask3_23_2657" style="mask-type:luminance" maskUnits="userSpaceOnUse" x="53" y="79" width="96" height="100">
<path d="M148.018 178.791H53.8826V99.4934L54.739 98.637C67.0045 86.3991 83.6236 79.5262 100.95 79.5262C118.277 79.5262 134.896 86.3991 147.161 98.637L148.018 99.4934V178.791ZM59.7386 172.935H142.162V101.931C131.073 91.3046 116.308 85.3721 100.95 85.3721C85.5919 85.3721 70.8271 91.3046 59.7386 101.931V172.935Z" fill="white"/>
</mask>
<g mask="url(#mask3_23_2657)">
<path opacity="0.7" d="M148.018 178.791H53.8826V99.4934L54.739 98.637C67.0045 86.3991 83.6236 79.5262 100.95 79.5262C118.277 79.5262 134.896 86.3991 147.161 98.637L148.018 99.4934V178.791ZM59.7386 172.935H142.162V101.931C131.073 91.3046 116.308 85.3721 100.95 85.3721C85.5919 85.3721 70.8271 91.3046 59.7386 101.931V172.935Z" fill="white"/>
</g>
<path d="M148.018 178.791H53.8826V99.4934L54.739 98.637C67.0045 86.3991 83.6236 79.5262 100.95 79.5262C118.277 79.5262 134.896 86.3991 147.161 98.637L148.018 99.4934V178.791ZM59.7386 172.935H142.162V101.931C131.073 91.3046 116.308 85.3721 100.95 85.3721C85.5919 85.3721 70.8271 91.3046 59.7386 101.931V172.935Z" stroke="#263238" stroke-width="0.549" stroke-linecap="round" stroke-linejoin="round"/>
<path d="M165.403 295.962H293.298L300.296 215.925H172.401L165.403 295.962Z" fill="#19B0B6" stroke="#263238" stroke-width="0.732" stroke-linecap="round" stroke-linejoin="round"/>
<path d="M226.62 258.835C229.936 261.47 234.789 261.47 238.573 258.835L300.296 215.94L293.298 295.977H165.432L172.401 215.94L226.62 258.835Z" fill="#19B0B6"/>
<mask id="mask4_23_2657" style="mask-type:luminance" maskUnits="userSpaceOnUse" x="165" y="215" width="136" height="81">
<path d="M226.62 258.835C229.936 261.47 234.789 261.47 238.573 258.835L300.296 215.94L293.298 295.977H165.432L172.401 215.94L226.62 258.835Z" fill="white"/>
</mask>
<g mask="url(#mask4_23_2657)">
<path opacity="0.4" d="M226.62 258.835C229.936 261.47 234.789 261.47 238.573 258.835L300.296 215.94L293.298 295.977H165.432L172.401 215.94L226.62 258.835Z" fill="white"/>
</g>
<path d="M226.62 258.835C229.936 261.47 234.789 261.47 238.573 258.835L300.296 215.94L293.298 295.977H165.432L172.401 215.94L226.62 258.835Z" stroke="#263238" stroke-width="0.732" stroke-linecap="round" stroke-linejoin="round"/>
<path d="M165.432 295.962H293.298L239.078 253.045C235.755 250.417 230.909 250.417 227.125 253.045L165.432 295.962Z" fill="#19B0B6"/>
<mask id="mask5_23_2657" style="mask-type:luminance" maskUnits="userSpaceOnUse" x="165" y="251" width="129" height="45">
<path d="M165.432 295.962H293.298L239.078 253.045C235.755 250.417 230.909 250.417 227.125 253.045L165.432 295.962Z" fill="white"/>
</mask>
<g mask="url(#mask5_23_2657)">
<path opacity="0.3" d="M165.432 295.962H293.298L239.078 253.045C235.755 250.417 230.909 250.417 227.125 253.045L165.432 295.962Z" fill="white"/>
</g>
<path d="M165.432 295.962H293.298L239.078 253.045C235.755 250.417 230.909 250.417 227.125 253.045L165.432 295.962Z" stroke="#263238" stroke-width="0.732" stroke-linecap="round" stroke-linejoin="round"/>
<path d="M172.401 215.94H300.296L230.829 173.023C226.576 170.395 221.723 170.395 218.875 173.023L172.401 215.94Z" fill="white" stroke="#263238" stroke-width="0.732" stroke-linecap="round" stroke-linejoin="round"/>
<path d="M100.752 279.866H113.885L106.982 223.655C106.814 222.482 106.236 221.405 105.351 220.617C104.465 219.829 103.328 219.381 102.143 219.351H44.8569L53.2603 279.866H100.752Z" fill="#19B0B6"/>
<mask id="mask6_23_2657" style="mask-type:luminance" maskUnits="userSpaceOnUse" x="44" y="219" width="70" height="61">
<path d="M100.752 279.866H113.885L106.982 223.655C106.814 222.482 106.236 221.405 105.351 220.617C104.465 219.829 103.328 219.381 102.143 219.351H44.8569L53.2603 279.866H100.752Z" fill="white"/>
</mask>
<g mask="url(#mask6_23_2657)">
<path opacity="0.7" d="M100.752 279.866H113.885L106.982 223.655C106.814 222.482 106.236 221.405 105.351 220.617C104.465 219.829 103.328 219.381 102.143 219.351H44.8569L53.2603 279.866H100.752Z" fill="white"/>
</g>
<path d="M100.752 279.866H113.885L106.982 223.655C106.814 222.482 106.236 221.405 105.351 220.617C104.465 219.829 103.328 219.381 102.143 219.351H44.8569L53.2603 279.866H100.752Z" stroke="#263238" stroke-width="0.549" stroke-linecap="round" stroke-linejoin="round"/>
<path d="M59.1163 279.866H45.9916L39.0888 223.655C39.0038 223.115 39.0386 222.564 39.1907 222.039C39.3428 221.514 39.6084 221.029 39.9689 220.618C40.3293 220.207 40.7757 219.881 41.2763 219.662C41.777 219.443 42.3197 219.337 42.8659 219.351H47.375C48.5606 219.379 49.6978 219.827 50.5838 220.616C51.4699 221.404 52.0475 222.481 52.2136 223.655L59.1163 279.866Z" fill="#19B0B6"/>
<mask id="mask7_23_2657" style="mask-type:luminance" maskUnits="userSpaceOnUse" x="39" y="219" width="21" height="61">
<path d="M59.1163 279.866H45.9916L39.0888 223.655C39.0038 223.115 39.0386 222.564 39.1907 222.039C39.3428 221.514 39.6084 221.029 39.9689 220.618C40.3293 220.207 40.7757 219.881 41.2763 219.662C41.777 219.443 42.3197 219.337 42.8659 219.351H47.375C48.5606 219.379 49.6978 219.827 50.5838 220.616C51.4699 221.404 52.0475 222.481 52.2136 223.655L59.1163 279.866Z" fill="white"/>
</mask>
<g mask="url(#mask7_23_2657)">
<path opacity="0.3" d="M59.1163 279.866H45.9916L39.0888 223.655C39.0038 223.115 39.0386 222.564 39.1907 222.039C39.3428 221.514 39.6084 221.029 39.9689 220.618C40.3293 220.207 40.7757 219.881 41.2763 219.662C41.777 219.443 42.3197 219.337 42.8659 219.351H47.375C48.5606 219.379 49.6978 219.827 50.5838 220.616C51.4699 221.404 52.0475 222.481 52.2136 223.655L59.1163 279.866Z" fill="white" stroke="#263238" stroke-width="0.549" stroke-linecap="round" stroke-linejoin="round"/>
</g>
<path d="M59.1163 279.866H45.9916L39.0888 223.655C39.0038 223.115 39.0386 222.564 39.1907 222.039C39.3428 221.514 39.6084 221.029 39.9689 220.618C40.3293 220.207 40.7757 219.881 41.2763 219.662C41.777 219.443 42.3197 219.337 42.8659 219.351H47.375C48.5606 219.379 49.6978 219.827 50.5838 220.616C51.4699 221.404 52.0475 222.481 52.2136 223.655L59.1163 279.866Z" stroke="#263238" stroke-width="0.549" stroke-linecap="round" stroke-linejoin="round"/>
<path d="M66.8609 283.284L64.4819 256.097C64.4346 255.503 64.1839 254.942 63.772 254.51C63.3601 254.078 62.8121 253.801 62.22 253.726L61.2391 253.601C60.4516 253.501 59.7222 253.134 59.1722 252.561C58.6222 251.988 58.2848 251.245 58.216 250.454L57.828 245.498C57.7864 245.018 57.845 244.535 58.0001 244.079C58.1552 243.623 58.4034 243.204 58.729 242.848C59.0545 242.493 59.4503 242.21 59.8912 242.016C60.3322 241.822 60.8086 241.721 61.2904 241.721H39.3304C38.8483 241.72 38.3713 241.82 37.9298 242.013C37.4884 242.207 37.0921 242.491 36.7664 242.846C36.4406 243.201 36.1925 243.621 36.0378 244.077C35.8831 244.534 35.8253 245.018 35.868 245.498L36.2999 250.454C36.3674 251.245 36.7044 251.989 37.2546 252.562C37.8049 253.135 38.535 253.502 39.3231 253.601L40.2966 253.726C40.885 253.799 41.4301 254.073 41.8406 254.501C42.2511 254.929 42.502 255.485 42.5512 256.075L44.9155 283.284C45.0013 284.239 45.4408 285.127 46.1478 285.774C46.8547 286.421 47.778 286.781 48.7366 286.783H70.6966C69.735 286.787 68.8072 286.429 68.0968 285.781C67.3864 285.133 66.9453 284.242 66.8609 283.284Z" fill="#19B0B6"/>
<mask id="mask8_23_2657" style="mask-type:luminance" maskUnits="userSpaceOnUse" x="35" y="241" width="36" height="46">
<path d="M66.8609 283.284L64.4819 256.097C64.4346 255.503 64.1839 254.942 63.772 254.51C63.3601 254.078 62.8121 253.801 62.22 253.726L61.2391 253.601C60.4516 253.501 59.7222 253.134 59.1722 252.561C58.6222 251.988 58.2848 251.245 58.216 250.454L57.828 245.498C57.7864 245.018 57.845 244.535 58.0001 244.079C58.1552 243.623 58.4034 243.204 58.729 242.848C59.0545 242.493 59.4503 242.21 59.8912 242.016C60.3322 241.822 60.8086 241.721 61.2904 241.721H39.3304C38.8483 241.72 38.3713 241.82 37.9298 242.013C37.4884 242.207 37.0921 242.491 36.7664 242.846C36.4406 243.201 36.1925 243.621 36.0378 244.077C35.8831 244.534 35.8253 245.018 35.868 245.498L36.2999 250.454C36.3674 251.245 36.7044 251.989 37.2546 252.562C37.8049 253.135 38.535 253.502 39.3231 253.601L40.2966 253.726C40.885 253.799 41.4301 254.073 41.8406 254.501C42.2511 254.929 42.502 255.485 42.5512 256.075L44.9155 283.284C45.0013 284.239 45.4408 285.127 46.1478 285.774C46.8547 286.421 47.778 286.781 48.7366 286.783H70.6966C69.735 286.787 68.8072 286.429 68.0968 285.781C67.3864 285.133 66.9453 284.242 66.8609 283.284Z" fill="white"/>
</mask>
<g mask="url(#mask8_23_2657)">
<g opacity="0.3">
<path d="M66.8609 283.284L64.4819 256.097C64.4346 255.503 64.1839 254.942 63.772 254.51C63.3601 254.078 62.8121 253.801 62.22 253.726L61.2391 253.601C60.4516 253.501 59.7222 253.134 59.1722 252.561C58.6222 251.988 58.2848 251.245 58.216 250.454L57.828 245.498C57.7864 245.018 57.845 244.535 58.0001 244.079C58.1552 243.623 58.4034 243.204 58.729 242.848C59.0545 242.493 59.4503 242.21 59.8912 242.016C60.3322 241.822 60.8086 241.721 61.2904 241.721H39.3304C38.8483 241.72 38.3713 241.82 37.9298 242.013C37.4884 242.207 37.0921 242.491 36.7664 242.846C36.4406 243.201 36.1925 243.621 36.0378 244.077C35.8831 244.534 35.8253 245.018 35.868 245.498L36.2999 250.454C36.3674 251.245 36.7044 251.989 37.2546 252.562C37.8049 253.135 38.535 253.502 39.3231 253.601L40.2966 253.726C40.885 253.799 41.4301 254.073 41.8406 254.501C42.2511 254.929 42.502 255.485 42.5512 256.075L44.9155 283.284C45.0013 284.239 45.4408 285.127 46.1478 285.774C46.8547 286.421 47.778 286.781 48.7366 286.783H70.6966C69.735 286.787 68.8072 286.429 68.0968 285.781C67.3864 285.133 66.9453 284.242 66.8609 283.284Z" fill="white" stroke="#263238" stroke-width="0.549" stroke-linecap="round" stroke-linejoin="round"/>
</g>
</g>
<path d="M66.8609 283.284L64.4819 256.097C64.4346 255.503 64.1839 254.942 63.772 254.51C63.3601 254.078 62.8121 253.801 62.22 253.726L61.2391 253.601C60.4516 253.501 59.7222 253.134 59.1722 252.561C58.6222 251.988 58.2848 251.245 58.216 250.454L57.828 245.498C57.7864 245.018 57.845 244.535 58.0001 244.079C58.1552 243.623 58.4034 243.204 58.729 242.848C59.0545 242.493 59.4503 242.21 59.8912 242.016C60.3322 241.822 60.8086 241.721 61.2904 241.721H39.3304C38.8483 241.72 38.3713 241.82 37.9298 242.013C37.4884 242.207 37.0921 242.491 36.7664 242.846C36.4406 243.201 36.1925 243.621 36.0378 244.077C35.8831 244.534 35.8253 245.018 35.868 245.498L36.2999 250.454C36.3674 251.245 36.7044 251.989 37.2546 252.562C37.8049 253.135 38.535 253.502 39.3231 253.601L40.2966 253.726C40.885 253.799 41.4301 254.073 41.8406 254.501C42.2511 254.929 42.502 255.485 42.5512 256.075L44.9155 283.284C45.0013 284.239 45.4408 285.127 46.1478 285.774C46.8547 286.421 47.778 286.781 48.7366 286.783H70.6966C69.735 286.787 68.8072 286.429 68.0968 285.781C67.3864 285.133 66.9453 284.242 66.8609 283.284Z" stroke="#263238" stroke-width="0.549" stroke-linecap="round" stroke-linejoin="round"/>
<path d="M127.236 249.268C127.416 247.208 128.361 245.29 129.886 243.893C131.41 242.495 133.403 241.72 135.471 241.721H116.388C114.32 241.72 112.327 242.495 110.802 243.893C109.278 245.29 108.332 247.208 108.153 249.268L106.25 270.84H125.348L127.236 249.268Z" fill="#19B0B6"/>
<mask id="mask9_23_2657" style="mask-type:luminance" maskUnits="userSpaceOnUse" x="106" y="241" width="30" height="30">
<path d="M127.236 249.268C127.416 247.208 128.361 245.29 129.886 243.893C131.41 242.495 133.403 241.72 135.471 241.721H116.388C114.32 241.72 112.327 242.495 110.802 243.893C109.278 245.29 108.332 247.208 108.153 249.268L106.25 270.84H125.348L127.236 249.268Z" fill="white"/>
</mask>
<g mask="url(#mask9_23_2657)">
<path opacity="0.3" d="M127.236 249.268C127.416 247.208 128.361 245.29 129.886 243.893C131.41 242.495 133.403 241.72 135.471 241.721H116.388C114.32 241.72 112.327 242.495 110.802 243.893C109.278 245.29 108.332 247.208 108.153 249.268L106.25 270.84H125.348L127.236 249.268Z" fill="white"/>
</g>
<path d="M127.236 249.268C127.416 247.208 128.361 245.29 129.886 243.893C131.41 242.495 133.403 241.72 135.471 241.721H116.388C114.32 241.72 112.327 242.495 110.802 243.893C109.278 245.29 108.332 247.208 108.153 249.268L106.25 270.84H125.348L127.236 249.268Z" stroke="#263238" stroke-width="0.549" stroke-linecap="round" stroke-linejoin="round"/>
<path d="M120.743 257.891H76.0475C73.8564 257.891 72.0801 259.667 72.0801 261.858V266.851C72.0801 269.042 73.8564 270.818 76.0475 270.818H120.743C122.935 270.818 124.711 269.042 124.711 266.851V261.858C124.711 259.667 122.935 257.891 120.743 257.891Z" fill="#19B0B6"/>
<mask id="mask10_23_2657" style="mask-type:luminance" maskUnits="userSpaceOnUse" x="72" y="257" width="53" height="14">
<path d="M120.743 257.891H76.0475C73.8564 257.891 72.0801 259.667 72.0801 261.858V266.851C72.0801 269.042 73.8564 270.818 76.0475 270.818H120.743C122.935 270.818 124.711 269.042 124.711 266.851V261.858C124.711 259.667 122.935 257.891 120.743 257.891Z" fill="white"/>
</mask>
<g mask="url(#mask10_23_2657)">
<g opacity="0.5">
<path d="M120.743 257.891H76.0475C73.8564 257.891 72.0801 259.667 72.0801 261.858V266.851C72.0801 269.042 73.8564 270.818 76.0475 270.818H120.743C122.935 270.818 124.711 269.042 124.711 266.851V261.858C124.711 259.667 122.935 257.891 120.743 257.891Z" fill="white"/>
</g>
</g>
<path d="M120.743 257.891H76.0475C73.8564 257.891 72.0801 259.667 72.0801 261.858V266.851C72.0801 269.042 73.8564 270.818 76.0475 270.818H120.743C122.935 270.818 124.711 269.042 124.711 266.851V261.858C124.711 259.667 122.935 257.891 120.743 257.891Z" stroke="#263238" stroke-width="0.549" stroke-linecap="round" stroke-linejoin="round"/>
<path d="M143.955 241.721H135.471C133.403 241.72 131.41 242.495 129.886 243.893C128.361 245.29 127.416 247.208 127.236 249.268L125.348 270.84H79.8613L77.9727 249.29C77.7932 247.23 76.8478 245.312 75.3233 243.914C73.7987 242.517 71.8057 241.742 69.7377 241.743H61.2538C60.7772 241.748 60.3067 241.852 59.8717 242.047C59.4367 242.242 59.0465 242.524 58.7252 242.876C58.4039 243.229 58.1585 243.643 58.0042 244.094C57.8498 244.545 57.7899 245.023 57.8281 245.498L58.2599 250.454C58.3287 251.245 58.6662 251.988 59.2162 252.561C59.7662 253.134 60.4955 253.501 61.2831 253.601L62.264 253.726C62.8513 253.802 63.3949 254.076 63.805 254.504C64.215 254.931 64.4667 255.486 64.5185 256.075L66.8536 283.284C66.9395 284.24 67.3801 285.129 68.0886 285.777C68.797 286.424 69.7222 286.783 70.682 286.783H134.527C135.486 286.783 136.41 286.424 137.118 285.776C137.825 285.128 138.264 284.239 138.348 283.284L140.727 256.097C140.779 255.508 141.031 254.953 141.441 254.526C141.851 254.098 142.394 253.824 142.982 253.748L143.963 253.623C144.75 253.521 145.478 253.154 146.028 252.581C146.578 252.009 146.916 251.266 146.986 250.476L147.418 245.52C147.462 245.038 147.406 244.553 147.253 244.094C147.099 243.635 146.851 243.213 146.525 242.856C146.199 242.498 145.803 242.213 145.36 242.017C144.917 241.822 144.439 241.721 143.955 241.721Z" fill="#19B0B6"/>
<mask id="mask11_23_2657" style="mask-type:luminance" maskUnits="userSpaceOnUse" x="57" y="241" width="91" height="46">
<path d="M143.955 241.721H135.471C133.403 241.72 131.41 242.495 129.886 243.893C128.361 245.29 127.416 247.208 127.236 249.268L125.348 270.84H79.8613L77.9727 249.29C77.7932 247.23 76.8478 245.312 75.3233 243.914C73.7987 242.517 71.8057 241.742 69.7377 241.743H61.2538C60.7772 241.748 60.3067 241.852 59.8717 242.047C59.4367 242.242 59.0465 242.524 58.7252 242.876C58.4039 243.229 58.1585 243.643 58.0042 244.094C57.8498 244.545 57.7899 245.023 57.8281 245.498L58.2599 250.454C58.3287 251.245 58.6662 251.988 59.2162 252.561C59.7662 253.134 60.4955 253.501 61.2831 253.601L62.264 253.726C62.8513 253.802 63.3949 254.076 63.805 254.504C64.215 254.931 64.4667 255.486 64.5185 256.075L66.8536 283.284C66.9395 284.24 67.3801 285.129 68.0886 285.777C68.797 286.424 69.7222 286.783 70.682 286.783H134.527C135.486 286.783 136.41 286.424 137.118 285.776C137.825 285.128 138.264 284.239 138.348 283.284L140.727 256.097C140.779 255.508 141.031 254.953 141.441 254.526C141.851 254.098 142.394 253.824 142.982 253.748L143.963 253.623C144.75 253.521 145.478 253.154 146.028 252.581C146.578 252.009 146.916 251.266 146.986 250.476L147.418 245.52C147.462 245.038 147.406 244.553 147.253 244.094C147.099 243.635 146.851 243.213 146.525 242.856C146.199 242.498 145.803 242.213 145.36 242.017C144.917 241.822 144.439 241.721 143.955 241.721Z" fill="white"/>
</mask>
<g mask="url(#mask11_23_2657)">
<path opacity="0.7" d="M143.955 241.721H135.471C133.403 241.72 131.41 242.495 129.886 243.893C128.361 245.29 127.416 247.208 127.236 249.268L125.348 270.84H79.8613L77.9727 249.29C77.7932 247.23 76.8478 245.312 75.3233 243.914C73.7987 242.517 71.8057 241.742 69.7377 241.743H61.2538C60.7772 241.748 60.3067 241.852 59.8717 242.047C59.4367 242.242 59.0465 242.524 58.7252 242.876C58.4039 243.229 58.1585 243.643 58.0042 244.094C57.8498 244.545 57.7899 245.023 57.8281 245.498L58.2599 250.454C58.3287 251.245 58.6662 251.988 59.2162 252.561C59.7662 253.134 60.4955 253.501 61.2831 253.601L62.264 253.726C62.8513 253.802 63.3949 254.076 63.805 254.504C64.215 254.931 64.4667 255.486 64.5185 256.075L66.8536 283.284C66.9395 284.24 67.3801 285.129 68.0886 285.777C68.797 286.424 69.7222 286.783 70.682 286.783H134.527C135.486 286.783 136.41 286.424 137.118 285.776C137.825 285.128 138.264 284.239 138.348 283.284L140.727 256.097C140.779 255.508 141.031 254.953 141.441 254.526C141.851 254.098 142.394 253.824 142.982 253.748L143.963 253.623C144.75 253.521 145.478 253.154 146.028 252.581C146.578 252.009 146.916 251.266 146.986 250.476L147.418 245.52C147.462 245.038 147.406 244.553 147.253 244.094C147.099 243.635 146.851 243.213 146.525 242.856C146.199 242.498 145.803 242.213 145.36 242.017C144.917 241.822 144.439 241.721 143.955 241.721Z" fill="white" stroke="#263238" stroke-width="0.549" stroke-linecap="round" stroke-linejoin="round"/>
</g>
<path d="M143.955 241.721H135.471C133.403 241.72 131.41 242.495 129.886 243.893C128.361 245.29 127.416 247.208 127.236 249.268L125.348 270.84H79.8613L77.9727 249.29C77.7932 247.23 76.8478 245.312 75.3233 243.914C73.7987 242.517 71.8057 241.742 69.7377 241.743H61.2538C60.7772 241.748 60.3067 241.852 59.8717 242.047C59.4367 242.242 59.0465 242.524 58.7252 242.876C58.4039 243.229 58.1585 243.643 58.0042 244.094C57.8498 244.545 57.7899 245.023 57.8281 245.498L58.2599 250.454C58.3287 251.245 58.6662 251.988 59.2162 252.561C59.7662 253.134 60.4955 253.501 61.2831 253.601L62.264 253.726C62.8513 253.802 63.3949 254.076 63.805 254.504C64.215 254.931 64.4667 255.486 64.5185 256.075L66.8536 283.284C66.9395 284.24 67.3801 285.129 68.0886 285.777C68.797 286.424 69.7222 286.783 70.682 286.783H134.527C135.486 286.783 136.41 286.424 137.118 285.776C137.825 285.128 138.264 284.239 138.348 283.284L140.727 256.097C140.779 255.508 141.031 254.953 141.441 254.526C141.851 254.098 142.394 253.824 142.982 253.748L143.963 253.623C144.75 253.521 145.478 253.154 146.028 252.581C146.578 252.009 146.916 251.266 146.986 250.476L147.418 245.52C147.462 245.038 147.406 244.553 147.253 244.094C147.099 243.635 146.851 243.213 146.525 242.856C146.199 242.498 145.803 242.213 145.36 242.017C144.917 241.822 144.439 241.721 143.955 241.721Z" stroke="#263238" stroke-width="0.549" stroke-linecap="round" stroke-linejoin="round"/>
<path d="M165.198 281.344L171.53 290.509C171.53 290.509 173.228 294.249 174.245 296.511C175.263 298.773 174.355 303.099 176.288 303.099C178.908 303.099 179.794 297.558 179.904 293.254C180.013 288.95 181.807 281.6 178.03 282.054H174.245L169.612 275.466L165.198 281.344Z" fill="white" stroke="#263238" stroke-width="0.732" stroke-linecap="round" stroke-linejoin="round"/>
<path d="M176.075 284.697L175.007 287.91C175.007 287.91 172.43 287.12 171.434 287.91C170.439 288.701 171.53 290.509 171.53 290.509C171.53 290.509 173.228 294.249 174.245 296.511C175.263 298.773 174.355 303.099 176.288 303.099C178.908 303.099 179.794 297.558 179.904 293.254C180.013 288.95 181.807 281.6 178.03 282.054H174.245C174.121 283.094 174.904 283.021 175.585 283.372C175.814 283.495 175.99 283.698 176.08 283.942C176.171 284.186 176.169 284.454 176.075 284.697Z" fill="#19B0B6" stroke="#263238" stroke-width="0.732" stroke-linecap="round" stroke-linejoin="round"/>
<path d="M172.789 290.311C172.789 290.311 176.141 288.349 176.331 290.677C176.522 293.005 172.789 290.311 172.789 290.311Z" stroke="#263238" stroke-width="0.732" stroke-linecap="round" stroke-linejoin="round"/>
<path d="M172.811 293.327C172.811 293.327 172.496 291.863 175.007 291.863" stroke="#263238" stroke-width="0.732" stroke-linecap="round" stroke-linejoin="round"/>
<path d="M173.66 294.593C173.66 294.593 173.352 293.129 175.856 293.129" stroke="#263238" stroke-width="0.732" stroke-linecap="round" stroke-linejoin="round"/>
<path d="M172.569 290.399C172.569 290.399 169.026 291.987 170.805 293.495C172.584 295.003 172.569 290.399 172.569 290.399Z" stroke="#263238" stroke-width="0.732" stroke-linecap="round" stroke-linejoin="round"/>
<path d="M179.15 285.758C179.15 289.352 178.659 291.519 178.198 297.302C177.839 301.877 176.339 302.096 175.007 301.299C175.175 302.331 175.482 303.077 176.288 303.07C178.908 303.07 179.794 297.529 179.904 293.225C180.013 288.92 181.807 281.571 178.03 282.025C178.03 282.025 179.128 282.171 179.15 285.758Z" fill="#263238" stroke="#263238" stroke-width="0.732" stroke-linecap="round" stroke-linejoin="round"/>
<path d="M159.129 205.795C161.983 207.587 165.4 208.257 168.719 207.676C174.282 206.688 176.632 206.131 176.632 206.131C176.632 206.131 182.802 223.128 176.998 231.707C171.193 240.286 160.894 259.311 160.894 259.311C160.894 259.311 164.554 261.273 163.09 261.814C163.09 261.814 166.486 264.669 169.678 272.977C169.678 272.977 171.017 276.191 172.181 276.462C172.181 276.462 170.219 284.184 165.593 284.053C165.593 284.053 160.052 276.733 155.14 272.084C153.281 270.328 150.543 267.429 148.933 265.716C148.064 264.786 147.589 263.555 147.608 262.283C147.644 260.131 156.655 218.034 158.354 218.304C158.354 218.304 156.838 215.625 158.441 214.191C158.177 211.373 158.41 208.531 159.129 205.795Z" fill="#19B0B6"/>
<mask id="mask12_23_2657" style="mask-type:luminance" maskUnits="userSpaceOnUse" x="147" y="205" width="33" height="80">
<path d="M159.129 205.795C161.983 207.587 165.4 208.257 168.719 207.676C174.282 206.688 176.632 206.131 176.632 206.131C176.632 206.131 182.802 223.128 176.998 231.707C171.193 240.286 160.894 259.311 160.894 259.311C160.894 259.311 164.554 261.273 163.09 261.814C163.09 261.814 166.486 264.669 169.678 272.977C169.678 272.977 171.017 276.191 172.181 276.462C172.181 276.462 170.219 284.184 165.593 284.053C165.593 284.053 160.052 276.733 155.14 272.084C153.281 270.328 150.543 267.429 148.933 265.716C148.064 264.786 147.589 263.555 147.608 262.283C147.644 260.131 156.655 218.034 158.354 218.304C158.354 218.304 156.838 215.625 158.441 214.191C158.177 211.373 158.41 208.531 159.129 205.795Z" fill="white"/>
</mask>
<g mask="url(#mask12_23_2657)">
<path opacity="0.3" d="M165.373 264.83C165.373 264.83 163.792 262.349 158.91 261.039C154.027 259.728 160.542 248.595 164.861 241.86C169.011 235.397 174.45 230.148 172.225 223.128C170 216.108 181.47 229.716 181.47 229.716L174.509 243.536L168.506 252.708L165.102 260.453L165.373 264.83Z" fill="black"/>
</g>
<path d="M159.129 205.795C161.983 207.587 165.4 208.257 168.719 207.676C174.282 206.688 176.632 206.131 176.632 206.131C176.632 206.131 182.802 223.128 176.998 231.707C171.193 240.286 160.894 259.311 160.894 259.311C160.894 259.311 164.554 261.273 163.09 261.814C163.09 261.814 166.486 264.669 169.678 272.977C169.678 272.977 171.017 276.191 172.181 276.462C172.181 276.462 170.219 284.184 165.593 284.053C165.593 284.053 160.052 276.733 155.14 272.084C153.281 270.328 150.543 267.429 148.933 265.716C148.064 264.786 147.589 263.555 147.608 262.283C147.644 260.131 156.655 218.034 158.354 218.304C158.354 218.304 156.838 215.625 158.441 214.191C158.177 211.373 158.41 208.531 159.129 205.795Z" stroke="#263238" stroke-width="0.732" stroke-linecap="round" stroke-linejoin="round"/>
<path d="M164.246 220.471C165.051 220.8 165.915 221.203 166.75 221.576C168.543 222.455 170.212 223.487 170.922 224.541C172.796 227.33 168.243 224.541 165.117 224.541" stroke="#263238" stroke-width="0.732" stroke-linecap="round" stroke-linejoin="round"/>
<path d="M160.469 219.11C160.469 219.11 161.296 219.366 162.497 219.798" stroke="#263238" stroke-width="0.732" stroke-linecap="round" stroke-linejoin="round"/>
<path d="M161.984 262.612C161.984 262.612 160.293 263.688 155.016 262.612" stroke="#263238" stroke-width="0.732" stroke-linecap="round" stroke-linejoin="round"/>
<path d="M158.5 258.777C158.5 258.777 151.802 255.915 153.771 253.052" stroke="#263238" stroke-width="0.732" stroke-linecap="round" stroke-linejoin="round"/>
<path d="M212.075 241.026C210.801 241.955 206.717 244.364 206.717 244.364L209.337 250.673C209.337 250.673 214.593 246.106 216.364 244.598L219.841 241.67L215.23 238.339C215.23 238.339 212.909 240.418 212.075 241.026Z" fill="white" stroke="#263238" stroke-width="0.732" stroke-linecap="round" stroke-linejoin="round"/>
<path d="M168.719 207.676C168.719 207.676 169.685 216.167 174.216 228.457C175.265 231.284 175.817 234.27 175.848 237.285C175.936 247.592 179.091 269.493 186.587 269.12C196.103 268.644 207.31 251.032 210.647 251.508C210.647 251.508 211.123 244.364 206.834 243.646C206.834 243.646 196.586 249.122 192.779 253.894C192.779 253.894 191.806 235.55 192.523 230.551C193.241 225.551 197.369 215.911 186.587 200.773C186.587 200.766 185.393 205.289 168.719 207.676Z" fill="#19B0B6"/>
<path d="M193.248 258.506C193.534 261.053 193.79 264.311 193.79 264.311" stroke="#263238" stroke-width="0.732" stroke-linecap="round" stroke-linejoin="round"/>
<path d="M191.44 263.52C192.099 261.383 192.469 259.167 192.538 256.932" stroke="#263238" stroke-width="0.732" stroke-linecap="round" stroke-linejoin="round"/>
<path d="M190.401 266.097C190.613 265.701 190.801 265.293 190.964 264.874" stroke="#263238" stroke-width="0.732" stroke-linecap="round" stroke-linejoin="round"/>
<path d="M183.329 221.862C183.787 221.908 184.239 222.004 184.676 222.147" stroke="#263238" stroke-width="0.732" stroke-linecap="round" stroke-linejoin="round"/>
<path d="M184.676 217.858C184.676 217.858 173.96 222.857 174.494 224.292C174.941 225.471 178.198 222.096 182.151 221.847" stroke="#263238" stroke-width="0.732" stroke-linecap="round" stroke-linejoin="round"/>
<path d="M175.146 231.546C175.331 232.308 175.477 233.076 175.585 233.852C175.746 234.99 175.834 236.136 175.848 237.285C175.936 247.592 180.431 270.108 186.587 269.12C196.008 267.605 207.31 251.032 210.648 251.508C210.648 251.508 211.123 244.364 206.834 243.646C206.834 243.646 196.586 249.122 192.779 253.894C192.779 253.894 191.806 235.55 192.523 230.551C193.241 225.551 197.369 215.911 186.587 200.773" stroke="#263238" stroke-width="0.732" stroke-linecap="round" stroke-linejoin="round"/>
<path d="M171.149 218.758C171.947 221.386 173.133 225.178 174.472 229.05" stroke="#263238" stroke-width="0.732" stroke-linecap="round" stroke-linejoin="round"/>
<path d="M170.102 215.208C170.102 215.208 170.292 215.867 170.622 216.987" stroke="#263238" stroke-width="0.732" stroke-linecap="round" stroke-linejoin="round"/>
<path d="M232.593 241.648C232.71 241.781 232.791 241.941 232.828 242.114C232.866 242.287 232.859 242.467 232.807 242.636C232.756 242.805 232.662 242.959 232.535 243.082C232.408 243.205 232.252 243.293 232.081 243.339C231.183 243.538 230.256 243.56 229.35 243.405C225.419 242.929 216.365 244.598 216.365 244.598C216.246 244.143 216.293 243.661 216.495 243.236C216.697 242.812 217.042 242.472 217.47 242.277C219.029 241.443 214.652 240.323 214.652 240.323C214.652 240.323 213.341 241.589 212.075 241.055C212.337 238.312 213.61 235.766 215.647 233.911C216.753 232.959 217.843 232.447 221.408 234.738C224.79 236.934 228.421 236.809 232.593 241.648Z" fill="#19B0B6" stroke="#263238" stroke-width="0.732" stroke-linecap="round" stroke-linejoin="round"/>
<path d="M219.051 244.151C219.051 244.151 216.189 246.091 217.792 247.16C219.395 248.229 219.593 244.071 219.593 244.071C219.593 244.071 219.995 247.811 221.847 247.335C223.699 246.86 220.193 243.983 220.193 243.983L219.051 244.151Z" stroke="#263238" stroke-width="0.732" stroke-linecap="round" stroke-linejoin="round"/>
<path d="M221.262 243.844C221.139 243.473 221.111 243.078 221.181 242.694C221.252 242.31 221.418 241.95 221.664 241.648" stroke="#263238" stroke-width="0.732" stroke-linecap="round" stroke-linejoin="round"/>
<path d="M222.616 243.675C222.567 243.43 222.573 243.177 222.635 242.935C222.697 242.693 222.813 242.468 222.974 242.277" stroke="#263238" stroke-width="0.732" stroke-linecap="round" stroke-linejoin="round"/>
<path d="M232.351 243.222C232.48 243.142 232.59 243.035 232.673 242.909C232.757 242.783 232.812 242.64 232.835 242.49C232.858 242.341 232.848 242.188 232.806 242.043C232.765 241.897 232.692 241.762 232.593 241.648C228.42 236.809 224.79 236.934 221.408 234.709C217.872 232.388 216.752 232.93 215.647 233.881L215.427 234.086C217.386 234.399 219.252 235.136 220.896 236.246C224.987 238.83 225.88 237.497 230.521 241.487C231.165 242.028 231.776 242.608 232.351 243.222Z" fill="#263238" stroke="#263238" stroke-width="0.732" stroke-linecap="round" stroke-linejoin="round"/>
<path d="M188.343 200.766C181.023 196.82 184.683 168.214 184.683 168.214L187.663 162.636C183.337 164.89 183.468 153.705 183.468 153.705L174.765 161.04C159.971 163.47 158.793 158.844 158.793 158.844L156.355 153.72C156.355 153.72 151.839 166.164 150.272 162.299L151.736 168.228C151.736 168.228 149.255 181.404 153.932 184.552C153.932 184.552 160.359 204.894 158.105 206.629C158.105 206.629 161.713 211.153 174.772 208.371C187.831 205.59 188.343 200.766 188.343 200.766Z" fill="#263238" stroke="#263238" stroke-width="0.732" stroke-linecap="round" stroke-linejoin="round"/>
<path d="M180.16 179.728C180.361 179.374 180.539 179.007 180.694 178.63" stroke="#7F7F7F" stroke-width="0.732" stroke-linecap="round" stroke-linejoin="round"/>
<path d="M177.7 182.685C178.415 182.128 179.04 181.464 179.552 180.716" stroke="#7F7F7F" stroke-width="0.732" stroke-linecap="round" stroke-linejoin="round"/>
<path d="M161.208 183C164.283 182.319 168.389 181.895 171.734 183.307" stroke="#7F7F7F" stroke-width="0.732" stroke-linecap="round" stroke-linejoin="round"/>
<path d="M156.743 184.362C156.743 184.362 157.57 184.017 158.895 183.63" stroke="#7F7F7F" stroke-width="0.732" stroke-linecap="round" stroke-linejoin="round"/>
<path d="M140.42 109.8C143.867 117.343 146.923 125.059 149.577 132.917C151.539 138.677 156.743 156.392 156.743 156.392C155.748 162.475 151.231 164.385 151.231 164.385C151.231 164.385 144.533 142.308 143.318 137.616C142.916 136.064 141.21 132.668 139.995 128.832C137.514 120.978 134.973 110.532 134.973 110.532C134.973 110.532 132.777 109.251 133.319 106.872C133.319 106.872 132.455 105.481 134.102 104.003C135.749 102.524 137.85 100.138 139.226 100.87C140.966 101.666 142.334 103.099 143.047 104.874C143.962 106.872 140.42 109.8 140.42 109.8Z" fill="white" stroke="#263238" stroke-width="0.732" stroke-linecap="round" stroke-linejoin="round"/>
<path d="M143.75 135.164C143.643 135.679 143.658 136.212 143.794 136.721C143.93 137.229 144.183 137.699 144.533 138.092" stroke="#263238" stroke-width="0.732" stroke-linecap="round" stroke-linejoin="round"/>
<path d="M214.029 119.938C204.879 129.806 202.617 132.382 198.657 137.506C197.332 139.219 195.561 140.705 192.948 143.677C188.343 148.911 183.256 155.184 183.256 155.184C181.916 161.201 185.393 164.663 185.393 164.663C185.393 164.663 200.765 146.298 203.635 142.403C204.843 140.771 206.497 139.475 209.63 135.318C213.985 129.527 215.83 126.065 218.516 123.525C219.424 122.669 220.837 121.973 222.103 120.063C222.103 120.063 223.428 119.096 222.455 117.135C221.481 115.173 218.333 112.157 216.774 112.318C215.625 112.443 215.933 112.552 213.846 114.602C212.221 116.11 214.029 119.938 214.029 119.938Z" fill="white" stroke="#263238" stroke-width="0.732" stroke-linecap="round" stroke-linejoin="round"/>
<path d="M204.14 139.973C204.05 140.497 203.838 140.993 203.52 141.419C203.202 141.845 202.787 142.19 202.31 142.425" stroke="#263238" stroke-width="0.732" stroke-linecap="round" stroke-linejoin="round"/>
<path d="M157.717 151.465C157.717 151.465 163.983 162.943 177.371 157.775L180.95 148.808L181.17 142.747L175.68 134.468L171.12 133.736L167.518 134.571L163.126 138.099L160.82 139.929L158.515 145.932L157.717 151.465Z" fill="#263238" stroke="#263238" stroke-width="0.732" stroke-linecap="round" stroke-linejoin="round"/>
<path d="M160.82 160.703C160.82 160.703 159.898 166.193 165.461 166.808C171.024 167.423 173.206 161.304 173.206 161.304C173.206 161.304 171.632 161.962 171.895 160.257C172.228 158.618 172.666 157.001 173.206 155.418L164.656 152.9C164.656 152.9 164.436 162.504 160.82 160.703Z" fill="white"/>
<mask id="mask13_23_2657" style="mask-type:luminance" maskUnits="userSpaceOnUse" x="160" y="152" width="14" height="15">
<path d="M160.82 160.703C160.82 160.703 159.898 166.193 165.461 166.808C171.024 167.423 173.206 161.304 173.206 161.304C173.206 161.304 171.632 161.962 171.895 160.257C172.228 158.618 172.666 157.001 173.206 155.418L164.656 152.9C164.656 152.9 164.436 162.504 160.82 160.703Z" fill="white"/>
</mask>
<g mask="url(#mask13_23_2657)">
<path d="M164.048 140.742C164.048 140.742 161.53 148.062 161.743 150.616C162.138 153.068 163.109 155.391 164.576 157.395C165.2 158.055 165.946 158.589 166.772 158.968C167.675 159.148 168.605 159.148 169.509 158.968C171.868 158.194 174.008 156.869 175.753 155.104C177.393 153.171 179.618 145.734 179.618 145.734L177.649 137.616L172.386 134.688L167.489 135.523L164.048 140.742Z" fill="#263238" stroke="#263238" stroke-width="0.732" stroke-linecap="round" stroke-linejoin="round"/>
</g>
<path d="M160.82 160.703C160.82 160.703 159.898 166.193 165.461 166.808C171.024 167.423 173.206 161.304 173.206 161.304C173.206 161.304 171.632 161.962 171.895 160.257C172.228 158.618 172.666 157.001 173.206 155.418L164.656 152.9C164.656 152.9 164.436 162.504 160.82 160.703Z" stroke="#263238" stroke-width="0.732" stroke-linecap="round" stroke-linejoin="round"/>
<path d="M164.048 139.812C164.048 139.812 161.53 147.132 161.743 149.687C162.137 152.136 163.108 154.457 164.576 156.458C165.139 157.201 165.918 157.752 166.806 158.038C167.693 158.323 168.647 158.329 169.538 158.053C171.9 157.28 174.043 155.955 175.79 154.188C177.429 152.256 179.655 144.819 179.655 144.819L177.649 136.672L172.386 133.788L167.489 134.622L164.048 139.812Z" fill="white" stroke="#263238" stroke-width="0.732" stroke-linecap="round" stroke-linejoin="round"/>
<path d="M169.502 144.936C169.585 145.556 169.529 146.186 169.338 146.781C169.147 147.376 168.825 147.921 168.396 148.376L169.326 150.177" stroke="#263238" stroke-width="0.732" stroke-linecap="round" stroke-linejoin="round"/>
<path d="M167.152 151.897C167.152 151.897 169.348 153.178 170.988 152.124C170.988 152.124 170.388 154.723 168.931 154.547C167.474 154.372 167.152 151.897 167.152 151.897Z" stroke="#263238" stroke-width="0.732" stroke-linecap="round" stroke-linejoin="round"/>
<path d="M168.023 145.06C167.87 145.536 167.518 145.844 167.24 145.792C166.962 145.741 166.859 145.243 167.006 144.775C167.152 144.306 167.511 143.984 167.789 144.08C168.067 144.175 168.17 144.585 168.023 145.06Z" fill="#263238"/>
<path d="M174.948 147.293C174.597 146.982 174.186 146.747 173.74 146.604C173.294 146.46 172.823 146.411 172.357 146.459C172.357 146.459 173.089 145.06 174.992 145.814" stroke="#263238" stroke-width="0.732" stroke-linecap="round" stroke-linejoin="round"/>
<path d="M169.092 142.835C169.092 142.835 169.172 141.927 167.481 141.371C167.005 141.209 166.494 141.172 166 141.264C165.505 141.356 165.042 141.575 164.656 141.898" stroke="#263238" stroke-width="0.732" stroke-linecap="round" stroke-linejoin="round"/>
<path d="M172.232 144.387C172.393 144.958 172.503 143.516 174.274 143.655C174.776 143.684 175.262 143.843 175.686 144.115C176.109 144.386 176.455 144.762 176.69 145.207" stroke="#263238" stroke-width="0.732" stroke-linecap="round" stroke-linejoin="round"/>
<path d="M162.724 140.215C162.724 140.215 165.425 141.73 169.802 136.035C169.802 136.035 176.39 144.38 179.318 145.961C179.318 145.961 175.526 149.533 175.16 153.178C174.794 156.824 174.933 159.605 172.884 159.949C172.884 159.949 183.403 162.709 184.04 151.67C184.676 140.632 184.662 139.666 179.135 133.751C176.207 130.625 172.086 130.494 168.426 131.467C165.161 132.331 162.277 133.949 160.989 137.323C158.251 144.511 150.207 150.807 157.395 156.07C164.583 161.333 161.23 151.678 161.23 151.678C161.23 151.678 159.803 153.962 159.452 151.524C158.917 147.981 163.09 145.668 162.724 140.215Z" fill="#263238" stroke="#263238" stroke-width="0.732" stroke-linecap="round" stroke-linejoin="round"/>
<path d="M167.511 132.177C167.511 132.177 167.291 128.854 171.046 129.183C174.802 129.513 168.492 130.223 167.511 132.177Z" fill="#263238" stroke="#263238" stroke-width="0.732" stroke-linecap="round" stroke-linejoin="round"/>
<path d="M163.375 141.627C163.416 141.118 163.416 140.607 163.375 140.098" stroke="#7F7F7F" stroke-width="0.549" stroke-linecap="round" stroke-linejoin="round"/>
<path d="M160.089 151.4C159.686 148.618 162.197 146.568 163.097 143.172" stroke="#7F7F7F" stroke-width="0.549" stroke-linecap="round" stroke-linejoin="round"/>
<path d="M161.867 151.524C161.867 151.524 161.311 152.417 160.806 152.49" stroke="#7F7F7F" stroke-width="0.549" stroke-linecap="round" stroke-linejoin="round"/>
<path d="M162.036 153.222C162.237 154.043 162.323 154.888 162.292 155.733" stroke="#7F7F7F" stroke-width="0.549" stroke-linecap="round" stroke-linejoin="round"/>
<path d="M174.948 155.733C174.948 155.733 174.86 157.929 174.384 158.698" stroke="#7F7F7F" stroke-width="0.549" stroke-linecap="round" stroke-linejoin="round"/>
<path d="M181.536 146.327C181.434 149.95 183.3 155.111 176.668 158.698" stroke="#7F7F7F" stroke-width="0.549" stroke-linecap="round" stroke-linejoin="round"/>
<path d="M172.986 133.539C174.779 133.584 176.488 134.309 177.766 135.566C180.636 138.612 182.407 141.598 181.675 145.2" stroke="#7F7F7F" stroke-width="0.549" stroke-linecap="round" stroke-linejoin="round"/>
<path d="M169.868 133.758C170.436 133.632 171.014 133.556 171.595 133.531" stroke="#7F7F7F" stroke-width="0.549" stroke-linecap="round" stroke-linejoin="round"/>
<path d="M235.75 51.1804L138.501 37.5649C135.482 37.1422 132.692 39.2468 132.27 42.2656L124.243 99.6002C123.82 102.619 125.924 105.409 128.943 105.831L226.192 119.447C229.211 119.87 232.001 117.765 232.424 114.746L240.451 57.4117C240.874 54.3929 238.769 51.6031 235.75 51.1804Z" fill="#263238" stroke="#263238" stroke-width="0.732" stroke-linecap="round" stroke-linejoin="round"/>
<path d="M235.904 50.7013L138.654 37.0858C135.636 36.6631 132.846 38.7677 132.423 41.7865L124.396 99.1211C123.973 102.14 126.078 104.93 129.097 105.352L226.346 118.968C229.365 119.391 232.154 117.286 232.577 114.267L240.604 56.9326C241.027 53.9138 238.922 51.124 235.904 50.7013Z" fill="#19B0B6"/>
<mask id="mask14_23_2657" style="mask-type:luminance" maskUnits="userSpaceOnUse" x="124" y="37" width="117" height="83">
<path d="M235.904 50.7013L138.654 37.0857C135.636 36.6631 132.846 38.7677 132.423 41.7864L124.396 99.1211C123.973 102.14 126.078 104.93 129.097 105.352L226.346 118.968C229.365 119.391 232.154 117.286 232.577 114.267L240.604 56.9326C241.027 53.9138 238.922 51.124 235.904 50.7013Z" fill="white"/>
</mask>
<g mask="url(#mask14_23_2657)">
<path opacity="0.6" d="M136.518 111.974L122.866 110.056L173.704 35.1433L187.355 37.0538L136.518 111.974Z" fill="white"/>
<path opacity="0.6" d="M196.015 120.304L177.839 117.757L228.677 42.8366L246.86 45.384L196.015 120.304Z" fill="white"/>
<path opacity="0.6" d="M145.734 113.262L141.159 112.618L192.004 37.7053L196.579 38.3422L145.734 113.262Z" fill="white"/>
</g>
<path d="M235.904 50.7013L138.654 37.0858C135.636 36.6631 132.846 38.7677 132.423 41.7865L124.396 99.1211C123.973 102.14 126.078 104.93 129.097 105.352L226.346 118.968C229.365 119.391 232.154 117.286 232.577 114.267L240.604 56.9326C241.027 53.9138 238.922 51.124 235.904 50.7013Z" stroke="#263238" stroke-width="0.549" stroke-linecap="round" stroke-linejoin="round"/>
<path d="M179.574 76.7941C180.475 76.7941 181.258 76.1207 181.873 75.0739L236.853 83.7042L238.317 73.0829L183.161 66.7584C183.045 65.6921 182.576 64.6952 181.829 63.9256C179.516 61.8979 171.12 63.9988 167.657 64.9797L166.676 64.8699C166.587 64.7221 166.476 64.5888 166.347 64.4746L170.893 41.5996L160.791 40.1868L158.456 63.1936C158.244 63.2516 158.043 63.3457 157.863 63.4717L156.106 63.1131C152.783 61.0927 145.924 57.257 143.289 58.5234C142.594 58.9038 142.021 59.472 141.635 60.1631L130.172 57.8866L128.671 68.5957L140.383 69.7743C140.484 70.1706 140.68 70.5364 140.954 70.84C141.229 71.1435 141.573 71.3757 141.957 71.5164C143.421 71.9117 145.756 71.6848 148.288 71.3334C139.19 76.6917 136.752 88.7477 136.752 88.7477L142.462 85.8197L146.854 91.6757C147.432 81.1568 153.822 74.664 157.387 71.8385L151.619 108.541L160.769 109.8L165.051 72.468H165.278C167.862 75.9011 172.767 84.18 170.322 94.9331L176.178 90.5411L180.855 94.9331C180.855 94.9331 181.785 83.1698 174.999 75.4985C176.441 76.1826 177.988 76.6205 179.574 76.7941Z" fill="#263238"/>
<path d="M130.362 56.5324L128.891 67.0366L159.957 70.0817L237.065 82.189L238.537 71.6775L160.974 62.7837L130.362 56.5324Z" fill="white" stroke="#263238" stroke-width="0.732" stroke-linecap="round" stroke-linejoin="round"/>
<path d="M150.119 108.797L159.181 110.071L164.21 67.0878L169.458 41.3946L159.466 39.9965L156.912 66.0703L150.119 108.797Z" fill="white" stroke="#263238" stroke-width="0.732" stroke-linecap="round" stroke-linejoin="round"/>
<path d="M158.602 68.4566C158.602 68.4566 146.766 75.1325 145.983 89.4797L141.664 83.7628L136.086 86.6468C136.086 86.6468 139.343 70.5062 152.49 67.6148L158.602 68.4566Z" fill="white" stroke="#263238" stroke-width="0.732" stroke-linecap="round" stroke-linejoin="round"/>
<path d="M162.606 69.013C162.606 69.013 172.122 78.69 168.96 92.7005L174.677 88.3817L179.252 92.6932C179.252 92.6932 180.555 76.2744 168.711 69.8694L162.606 69.013Z" fill="white" stroke="#263238" stroke-width="0.732" stroke-linecap="round" stroke-linejoin="round"/>
<path d="M156.868 62.7178C156.868 62.7178 145.968 55.4563 142.513 57.0814C139.058 58.7064 137.858 68.8812 141.174 69.7962C144.49 70.7112 152.959 68.2224 156.546 68.7275L156.868 62.7178Z" fill="white" stroke="#263238" stroke-width="0.732" stroke-linecap="round" stroke-linejoin="round"/>
<path d="M140.764 68.4054C140.888 69.6864 144.621 69.745 147.476 69.5986C149.599 69.2985 151.824 68.9178 153.705 68.7495C149.145 68.0248 140.61 66.8682 140.764 68.4054Z" fill="#999999" stroke="#263238" stroke-width="0.732" stroke-linecap="round" stroke-linejoin="round"/>
<path d="M164.861 63.8377C164.861 63.8377 177.341 59.8483 180.233 62.3737C183.124 64.8991 181.47 74.9934 178.037 74.9568C174.604 74.9202 167.137 70.2061 163.536 69.7011L164.861 63.8377Z" fill="white" stroke="#263238" stroke-width="0.732" stroke-linecap="round" stroke-linejoin="round"/>
<path d="M178.791 73.727C178.315 74.9275 174.706 73.954 172.005 72.995C170.043 72.1313 168.009 71.1504 166.244 70.4696C170.827 71.0626 179.34 72.2996 178.791 73.727Z" fill="#999999" stroke="#263238" stroke-width="0.732" stroke-linecap="round" stroke-linejoin="round"/>
<path d="M162.504 71.004L157.27 70.272C156.803 70.2066 156.378 69.9675 156.08 69.6026C155.781 69.2376 155.631 68.7735 155.66 68.3029L155.975 63.3473C155.989 63.088 156.058 62.8345 156.175 62.603C156.293 62.3716 156.458 62.1671 156.659 62.0026C156.86 61.8381 157.093 61.7171 157.343 61.6475C157.593 61.5778 157.855 61.5609 158.112 61.5978L164.085 62.4396C164.341 62.474 164.588 62.5612 164.808 62.6958C165.029 62.8303 165.219 63.0092 165.367 63.2212C165.515 63.4331 165.618 63.6735 165.668 63.9271C165.718 64.1806 165.715 64.4418 165.659 64.6942L164.583 69.54C164.485 70.0016 164.217 70.4091 163.831 70.6807C163.446 70.9523 162.971 71.0678 162.504 71.004Z" fill="white" stroke="#263238" stroke-width="0.732" stroke-linecap="round" stroke-linejoin="round"/>
<path d="M137.755 108.636C137.755 108.636 136.357 106.594 139.578 105.071C142.008 103.922 141.32 102.465 142.886 102.634C144.453 102.802 140.822 106.63 141.32 108.021" fill="white"/>
<path d="M137.755 108.636C137.755 108.636 136.357 106.594 139.578 105.071C142.008 103.922 141.32 102.465 142.886 102.634C144.453 102.802 140.822 106.63 141.32 108.021" stroke="#263238" stroke-width="0.732" stroke-linecap="round" stroke-linejoin="round"/>
<path d="M217.265 120.333C217.265 120.333 219.38 118.921 216.906 116.344C215.164 114.536 217.506 113.336 216.269 112.582C214.615 111.579 215.164 117.332 214.19 118.438" fill="white"/>
<path d="M217.265 120.333C217.265 120.333 219.38 118.921 216.906 116.344C215.164 114.536 217.506 113.336 216.269 112.582C214.615 111.579 215.164 117.332 214.19 118.438" stroke="#263238" stroke-width="0.732" stroke-linecap="round" stroke-linejoin="round"/>
<path d="M209.096 107.267C207.763 106.799 207.214 105.642 207.434 104.112L207.544 103.314L209.345 103.571L209.213 104.493C209.171 104.628 209.161 104.77 209.183 104.91C209.206 105.049 209.259 105.181 209.341 105.296C209.422 105.412 209.529 105.507 209.652 105.574C209.776 105.642 209.914 105.68 210.055 105.686C210.662 105.774 211.087 105.51 211.197 104.735C211.306 103.959 211.057 103.19 209.916 102.004C208.532 100.54 208.129 99.5081 208.312 98.1905C208.525 96.7265 209.345 95.7749 210.721 95.6651L210.867 94.611L212.434 94.8306L212.28 95.892C213.598 96.3605 214.139 97.5024 213.927 99.025L213.876 99.369L212.075 99.1201L212.141 98.6517C212.243 97.9197 211.943 97.5244 211.336 97.4438C210.728 97.3633 210.34 97.6342 210.238 98.3442C210.135 99.0543 210.391 99.8082 211.526 101.001C212.917 102.465 213.312 103.497 213.122 104.888C212.902 106.447 212.046 107.406 210.655 107.494L210.479 108.702L208.92 108.482L209.096 107.267Z" fill="#263238"/>
<path d="M214.366 105.335L214.505 104.383L216.306 104.639L216.152 105.73C216.028 106.594 216.364 106.96 216.972 107.048C217.58 107.136 218.004 106.872 218.129 106.008L218.509 103.285C218.634 102.421 218.297 102.033 217.689 101.953C217.082 101.872 216.657 102.143 216.533 103.007V103.11L214.732 102.861L216.028 96.1263L221.057 96.8583L220.815 98.5931L217.484 98.1246L216.921 100.994H216.957C217.164 100.733 217.439 100.534 217.751 100.419C218.064 100.304 218.402 100.277 218.729 100.343C220.134 100.54 220.705 101.624 220.456 103.41L220.068 106.155C219.798 108.094 218.67 109.083 216.796 108.804C214.922 108.526 214.095 107.282 214.366 105.335Z" fill="#263238"/>
<path d="M221.218 106.301L222.118 99.918C222.389 97.9782 223.582 96.99 225.441 97.2755C227.301 97.561 228.179 98.7907 227.908 100.738L227.008 107.114C226.737 109.053 225.544 110.042 223.685 109.756C221.825 109.471 220.947 108.241 221.218 106.301ZM225.083 106.967L226.012 100.379C226.137 99.5154 225.8 99.1348 225.192 99.0469C224.585 98.9591 224.16 99.2372 224.036 100.101L223.106 106.726C222.989 107.589 223.319 107.977 223.926 108.058C224.534 108.138 224.966 107.831 225.083 106.967Z" fill="#263238"/>
<path d="M204.499 151.824L205.685 150.748" stroke="#263238" stroke-width="0.732" stroke-linecap="round" stroke-linejoin="round"/>
<path d="M191.294 168.316C193.226 164.239 196.864 158.998 203.591 152.666" stroke="#263238" stroke-width="0.732" stroke-linecap="round" stroke-linejoin="round"/>
<path d="M190.02 171.537C190.196 170.981 190.408 170.388 190.657 169.765" stroke="#263238" stroke-width="0.732" stroke-linecap="round" stroke-linejoin="round"/>
<path d="M189.588 178.564C189.268 177.568 189.158 176.516 189.266 175.475" stroke="#263238" stroke-width="0.732" stroke-linecap="round" stroke-linejoin="round"/>
<path d="M151.524 282.596V287.661" stroke="#263238" stroke-width="0.732" stroke-linecap="round" stroke-linejoin="round"/>
<path d="M151.524 275.554V280.81" stroke="#263238" stroke-width="0.732" stroke-linecap="round" stroke-linejoin="round"/>
<path d="M151.524 271.777V273.973" stroke="#263238" stroke-width="0.732" stroke-linecap="round" stroke-linejoin="round"/>
<path d="M157.819 293.488V295.801" stroke="#263238" stroke-width="0.732" stroke-linecap="round" stroke-linejoin="round"/>
<path d="M157.819 282.735V291.863" stroke="#263238" stroke-width="0.732" stroke-linecap="round" stroke-linejoin="round"/>
<path d="M157.819 278.453V280.81" stroke="#263238" stroke-width="0.732" stroke-linecap="round" stroke-linejoin="round"/>
<path d="M210.457 268.9C210.831 268.725 211.189 268.534 211.585 268.344" stroke="#263238" stroke-width="0.732" stroke-linecap="round" stroke-linejoin="round"/>
<path d="M198.13 273.534C201.978 272.549 205.717 271.183 209.293 269.457" stroke="#263238" stroke-width="0.732" stroke-linecap="round" stroke-linejoin="round"/>
<path d="M178.872 270.598C181.639 273.124 186.77 275.664 195.766 274.039" stroke="#263238" stroke-width="0.732" stroke-linecap="round" stroke-linejoin="round"/>
<path d="M176.002 266.682C176.361 267.529 176.839 268.321 177.422 269.032" stroke="#263238" stroke-width="0.732" stroke-linecap="round" stroke-linejoin="round"/>
<path d="M189.588 118.02L192.26 118.364" stroke="#263238" stroke-width="0.732" stroke-linecap="round" stroke-linejoin="round"/>
<path d="M169.539 115.414L186.755 117.654" stroke="#263238" stroke-width="0.732" stroke-linecap="round" stroke-linejoin="round"/>
<path d="M161.992 114.434L165.805 114.931" stroke="#263238" stroke-width="0.732" stroke-linecap="round" stroke-linejoin="round"/>
<path d="M185.789 40.3479L183.124 39.9965" stroke="#263238" stroke-width="0.732" stroke-linecap="round" stroke-linejoin="round"/>
<path d="M205.846 42.9538L188.629 40.7138" stroke="#263238" stroke-width="0.732" stroke-linecap="round" stroke-linejoin="round"/>
<path d="M213.385 43.9346L209.572 43.4369" stroke="#263238" stroke-width="0.732" stroke-linecap="round" stroke-linejoin="round"/>
</svg>
