<svg width="350" height="350" viewBox="0 0 350 350" fill="none" xmlns="http://www.w3.org/2000/svg">
<path d="M318.605 283.577C334.698 260.96 339.36 229.6 336.7 203C335.384 189.819 332.808 176.001 325.024 164.955C313.684 148.855 294.966 140.399 280.7 127.4C259.7 108.276 250.817 80.353 232.953 58.8C209.636 30.723 172.9 27.174 138.53 28.833C112.7 30.1 71.176 30.59 65.1 63C58.8 96.6 70.7 128.1 45.5 144.2C20.3 160.3 7.00004 193.9 14.7 222.6C21.196 246.806 52.332 251.09 58.8 275.8C66.5 305.2 111.3 344.4 154.7 341.6C198.1 338.8 223.3 310.1 241.5 311.5C262.591 313.117 285.061 313.054 302.792 299.873C308.883 295.302 314.219 289.803 318.605 283.577Z" fill="#19B0B6"/>
<path opacity="0.7" d="M318.605 283.577C334.698 260.96 339.36 229.6 336.7 203C335.384 189.819 332.808 176.001 325.024 164.955C313.684 148.855 294.966 140.399 280.7 127.4C259.7 108.276 250.817 80.353 232.953 58.8C209.636 30.723 172.9 27.174 138.53 28.833C112.7 30.1 71.176 30.59 65.1 63C58.8 96.6 70.7 128.1 45.5 144.2C20.3 160.3 7.00004 193.9 14.7 222.6C21.196 246.806 52.332 251.09 58.8 275.8C66.5 305.2 111.3 344.4 154.7 341.6C198.1 338.8 223.3 310.1 241.5 311.5C262.591 313.117 285.061 313.054 302.792 299.873C308.883 295.302 314.219 289.803 318.605 283.577Z" fill="white"/>
<path d="M287.483 95.242C287.483 95.242 274.12 87.815 273.133 104.643C272.146 121.471 269.668 230.825 269.668 230.825" stroke="#263238" stroke-width="1.4" stroke-linecap="round" stroke-linejoin="round"/>
<path d="M266.196 106.127C266.196 106.127 277.095 130.375 272.146 229.327" stroke="#263238" stroke-width="1.4" stroke-linecap="round" stroke-linejoin="round"/>
<path d="M276.899 98.623C276.899 98.623 271.789 101.899 268.884 98.154C265.979 94.409 270.851 87.542 266.553 84.602C262.255 81.662 254.835 86.149 254.835 86.149C254.835 86.149 260.554 87.829 260.365 90.944C260.176 94.059 257.432 95.242 257.068 93.877C256.704 92.512 253.974 85.652 249.333 88.508C247.997 89.2983 246.834 90.3506 245.915 91.6017C244.996 92.8528 244.34 94.2767 243.985 95.788C243.985 95.788 254.8 94.64 255.437 98.7C256.074 102.76 251.013 98 246.554 97.727C242.095 97.454 238.042 98.119 238.329 100.821C238.616 103.523 237.909 107.947 237.909 107.947C237.909 107.947 241.682 104.594 246.582 104.881C251.482 105.168 251.3 108.29 246.841 108.031C242.382 107.772 238.56 112 238.56 112C238.56 112 242.62 118.944 247.786 122.374C252.952 125.804 254.786 124.579 255.409 121.933C256.032 119.287 254.625 112.497 257.74 112.679C260.855 112.861 252.581 124.446 256.564 125.125C260.547 125.804 263.739 124.656 264.789 122.038L265.839 119.42C265.839 119.42 264.439 112.63 265.055 109.984C265.671 107.338 266.392 110.061 267.099 113.232C267.806 116.403 268.247 124.033 269.612 123.662C270.977 123.291 275.324 117.74 276.346 115.57C277.368 113.4 270.613 106.736 270.69 105.399C270.767 104.062 275.982 106.603 276.794 107.996C277.382 109.041 277.915 110.115 278.39 111.216C278.39 111.216 281.645 109.172 281.568 102.914C281.491 96.656 276.899 98.623 276.899 98.623Z" fill="#19B0B6"/>
<path opacity="0.3" d="M276.899 98.623C276.899 98.623 271.789 101.899 268.884 98.154C265.979 94.409 270.851 87.542 266.553 84.602C262.255 81.662 254.835 86.149 254.835 86.149C254.835 86.149 260.554 87.829 260.365 90.944C260.176 94.059 257.432 95.242 257.068 93.877C256.704 92.512 253.974 85.652 249.333 88.508C247.997 89.2983 246.834 90.3506 245.915 91.6017C244.996 92.8528 244.34 94.2767 243.985 95.788C243.985 95.788 254.8 94.64 255.437 98.7C256.074 102.76 251.013 98 246.554 97.727C242.095 97.454 238.042 98.119 238.329 100.821C238.616 103.523 237.909 107.947 237.909 107.947C237.909 107.947 241.682 104.594 246.582 104.881C251.482 105.168 251.3 108.29 246.841 108.031C242.382 107.772 238.56 112 238.56 112C238.56 112 242.62 118.944 247.786 122.374C252.952 125.804 254.786 124.579 255.409 121.933C256.032 119.287 254.625 112.497 257.74 112.679C260.855 112.861 252.581 124.446 256.564 125.125C260.547 125.804 263.739 124.656 264.789 122.038L265.839 119.42C265.839 119.42 264.439 112.63 265.055 109.984C265.671 107.338 266.392 110.061 267.099 113.232C267.806 116.403 268.247 124.033 269.612 123.662C270.977 123.291 275.324 117.74 276.346 115.57C277.368 113.4 270.613 106.736 270.69 105.399C270.767 104.062 275.982 106.603 276.794 107.996C277.382 109.041 277.915 110.115 278.39 111.216C278.39 111.216 281.645 109.172 281.568 102.914C281.491 96.656 276.899 98.623 276.899 98.623Z" fill="#263238"/>
<path d="M250.992 113.309C254.324 109.193 259.238 103.614 263.354 100.954" stroke="#263238" stroke-width="0.7" stroke-linecap="round" stroke-linejoin="round"/>
<path d="M247.1 118.3C247.1 118.3 247.954 117.11 249.34 115.325" stroke="#263238" stroke-width="0.7" stroke-linecap="round" stroke-linejoin="round"/>
<path d="M265.524 101.976C265.524 101.976 270.48 108.976 271.397 116.186" stroke="#263238" stroke-width="0.7" stroke-linecap="round" stroke-linejoin="round"/>
<path d="M259.917 106.12C259.917 106.12 261.317 105.308 260.785 114.219" stroke="#263238" stroke-width="0.7" stroke-linecap="round" stroke-linejoin="round"/>
<path d="M263.536 97.839C263.536 97.839 266.336 95.326 264.873 90.314" stroke="#263238" stroke-width="0.7" stroke-linecap="round" stroke-linejoin="round"/>
<path d="M259.707 102.081L257.691 98.385" stroke="#263238" stroke-width="0.7" stroke-linecap="round" stroke-linejoin="round"/>
<path d="M255.5 105.854C255.5 105.854 249.081 101.003 245.07 100.772" stroke="#263238" stroke-width="0.7" stroke-linecap="round" stroke-linejoin="round"/>
<path d="M295.113 85.4C295.113 85.4 294.91 92.75 289.177 93.1C283.444 93.45 279.895 83.895 274.022 86.198C268.149 88.501 267.589 98.98 267.589 98.98C267.589 98.98 273.189 94.402 276.157 96.712C279.125 99.022 278.46 102.585 276.857 102.018C275.254 101.451 266.511 99.505 266.21 106.099C266.09 107.976 266.352 109.858 266.978 111.631C267.605 113.404 268.584 115.032 269.857 116.417C269.857 116.417 276.066 104.818 280.574 106.932C285.082 109.046 276.85 110.887 273.574 115.164C270.298 119.441 268.163 123.963 271.061 125.51C273.959 127.057 277.914 130.788 277.914 130.788C277.914 130.788 277.13 124.726 280.756 120.015C284.382 115.304 287.385 117.621 284.081 121.898C280.777 126.175 282.422 132.902 282.422 132.902C282.422 132.902 292.145 133.602 299.103 130.746C306.061 127.89 306.103 125.216 303.856 122.808C301.609 120.4 293.874 117.166 296.156 114.163C298.438 111.16 304.416 127.358 307.811 123.83C311.206 120.302 312.235 116.326 310.331 113.484L308.42 110.684C308.42 110.684 300.678 107.45 298.438 105.042C296.198 102.634 299.432 103.754 303.086 105.21C306.74 106.666 314.678 111.419 315.245 109.802C315.812 108.185 313.208 100.044 311.745 97.538C310.282 95.032 298.991 97.265 297.703 96.278C296.415 95.291 302.519 91.798 304.465 91.931C305.914 92.0545 307.356 92.2531 308.784 92.526C308.784 92.526 308.952 87.885 302.624 83.692C296.296 79.499 295.113 85.4 295.113 85.4Z" fill="#19B0B6"/>
<path opacity="0.2" d="M295.113 85.4C295.113 85.4 294.91 92.75 289.177 93.1C283.444 93.45 279.895 83.895 274.022 86.198C268.149 88.501 267.589 98.98 267.589 98.98C267.589 98.98 273.189 94.402 276.157 96.712C279.125 99.022 278.46 102.585 276.857 102.018C275.254 101.451 266.511 99.505 266.21 106.099C266.09 107.976 266.352 109.858 266.978 111.631C267.605 113.404 268.584 115.032 269.857 116.417C269.857 116.417 276.066 104.818 280.574 106.932C285.082 109.046 276.85 110.887 273.574 115.164C270.298 119.441 268.163 123.963 271.061 125.51C273.959 127.057 277.914 130.788 277.914 130.788C277.914 130.788 277.13 124.726 280.756 120.015C284.382 115.304 287.385 117.621 284.081 121.898C280.777 126.175 282.422 132.902 282.422 132.902C282.422 132.902 292.145 133.602 299.103 130.746C306.061 127.89 306.103 125.216 303.856 122.808C301.609 120.4 293.874 117.166 296.156 114.163C298.438 111.16 304.416 127.358 307.811 123.83C311.206 120.302 312.235 116.326 310.331 113.484L308.42 110.684C308.42 110.684 300.678 107.45 298.438 105.042C296.198 102.634 299.432 103.754 303.086 105.21C306.74 106.666 314.678 111.419 315.245 109.802C315.812 108.185 313.208 100.044 311.745 97.538C310.282 95.032 298.991 97.265 297.703 96.278C296.415 95.291 302.519 91.798 304.465 91.931C305.914 92.0545 307.356 92.2531 308.784 92.526C308.784 92.526 308.952 87.885 302.624 83.692C296.296 79.499 295.113 85.4 295.113 85.4Z" fill="#263238"/>
<path d="M292.159 121.373C290.304 115.227 288.071 106.512 288.211 100.576" stroke="#263238" stroke-width="0.7" stroke-linecap="round" stroke-linejoin="round"/>
<path d="M294.546 128.66C294.546 128.66 293.937 126.994 293.097 124.39" stroke="#263238" stroke-width="0.7" stroke-linecap="round" stroke-linejoin="round"/>
<path d="M290.717 99.092C290.717 99.092 301.098 98.91 308.917 102.9" stroke="#263238" stroke-width="0.7" stroke-linecap="round" stroke-linejoin="round"/>
<path d="M291.039 107.534C291.039 107.534 291.172 105.588 299.74 112.189" stroke="#263238" stroke-width="0.7" stroke-linecap="round" stroke-linejoin="round"/>
<path d="M285.215 98.266C285.215 98.266 284.627 93.716 278.6 91.798" stroke="#263238" stroke-width="0.7" stroke-linecap="round" stroke-linejoin="round"/>
<path d="M286.86 104.993L281.785 104.489" stroke="#263238" stroke-width="0.7" stroke-linecap="round" stroke-linejoin="round"/>
<path d="M287.742 111.811C287.742 111.811 278.509 114.933 275.541 118.811" stroke="#263238" stroke-width="0.7" stroke-linecap="round" stroke-linejoin="round"/>
<path d="M233.548 134.33C233.548 134.33 262.745 153.629 262.248 228.347" stroke="#263238" stroke-width="1.4" stroke-linecap="round" stroke-linejoin="round"/>
<path d="M269.542 129.234C269.542 129.234 268.611 137.697 261.961 137.564C255.311 137.431 252.119 126.07 245.126 128.17C238.133 130.27 236.495 142.31 236.495 142.31C236.495 142.31 243.355 137.557 246.596 140.504C249.837 143.451 248.696 147.504 246.89 146.692C245.084 145.88 235.2 142.8 234.22 150.388C233.902 152.544 234.024 154.741 234.58 156.848C235.136 158.955 236.114 160.927 237.454 162.645C237.454 162.645 245.707 149.849 250.719 152.712C255.731 155.575 246.043 156.912 241.829 161.553C237.615 166.194 234.752 171.185 237.951 173.25C241.15 175.315 245.357 179.991 245.357 179.991C245.357 179.991 245 172.9 249.655 167.825C254.31 162.75 257.53 165.683 253.316 170.31C249.102 174.937 250.369 182.854 250.369 182.854C250.369 182.854 261.52 184.541 269.815 181.937C278.11 179.333 278.404 176.218 276.045 173.222C273.686 170.226 265.062 165.767 268.016 162.533C270.97 159.299 276.297 178.528 280.553 174.783C284.809 171.038 286.363 166.537 284.431 163.086L282.492 159.635C282.492 159.635 273.868 155.169 271.509 152.173C269.15 149.177 272.776 150.773 276.857 152.81C280.938 154.847 289.653 161.063 290.451 159.257C291.249 157.451 289.051 147.805 287.553 144.774C286.055 141.743 272.853 143.255 271.453 141.974C270.053 140.693 277.431 137.263 279.664 137.599C281.315 137.882 282.95 138.249 284.564 138.698C284.564 138.698 285.201 133.35 278.299 127.918C271.397 122.486 269.542 129.234 269.542 129.234Z" fill="#19B0B6"/>
<path opacity="0.3" d="M269.542 129.234C269.542 129.234 268.611 137.697 261.961 137.564C255.311 137.431 252.119 126.07 245.126 128.17C238.133 130.27 236.495 142.31 236.495 142.31C236.495 142.31 243.355 137.557 246.596 140.504C249.837 143.451 248.696 147.504 246.89 146.692C245.084 145.88 235.2 142.8 234.22 150.388C233.902 152.544 234.024 154.741 234.58 156.848C235.136 158.955 236.114 160.927 237.454 162.645C237.454 162.645 245.707 149.849 250.719 152.712C255.731 155.575 246.043 156.912 241.829 161.553C237.615 166.194 234.752 171.185 237.951 173.25C241.15 175.315 245.357 179.991 245.357 179.991C245.357 179.991 245 172.9 249.655 167.825C254.31 162.75 257.53 165.683 253.316 170.31C249.102 174.937 250.369 182.854 250.369 182.854C250.369 182.854 261.52 184.541 269.815 181.937C278.11 179.333 278.404 176.218 276.045 173.222C273.686 170.226 265.062 165.767 268.016 162.533C270.97 159.299 276.297 178.528 280.553 174.783C284.809 171.038 286.363 166.537 284.431 163.086L282.492 159.635C282.492 159.635 273.868 155.169 271.509 152.173C269.15 149.177 272.776 150.773 276.857 152.81C280.938 154.847 289.653 161.063 290.451 159.257C291.249 157.451 289.051 147.805 287.553 144.774C286.055 141.743 272.853 143.255 271.453 141.974C270.053 140.693 277.431 137.263 279.664 137.599C281.315 137.882 282.95 138.249 284.564 138.698C284.564 138.698 285.201 133.35 278.299 127.918C271.397 122.486 269.542 129.234 269.542 129.234Z" fill="#263238"/>
<path d="M262.738 170.436C261.177 163.17 259.427 152.936 260.148 146.069" stroke="#263238" stroke-width="0.7" stroke-linecap="round" stroke-linejoin="round"/>
<path d="M264.81 179.074C264.81 179.074 264.264 177.093 263.543 174.006" stroke="#263238" stroke-width="0.7" stroke-linecap="round" stroke-linejoin="round"/>
<path d="M263.2 144.592C263.2 144.592 275.198 145.355 283.864 150.71" stroke="#263238" stroke-width="0.7" stroke-linecap="round" stroke-linejoin="round"/>
<path d="M262.752 154.364C262.752 154.364 263.095 152.131 272.349 160.552" stroke="#263238" stroke-width="0.7" stroke-linecap="round" stroke-linejoin="round"/>
<path d="M256.9 143.122C256.9 143.122 256.655 137.816 249.9 135.037" stroke="#263238" stroke-width="0.7" stroke-linecap="round" stroke-linejoin="round"/>
<path d="M258.167 151.032L252.357 149.975" stroke="#263238" stroke-width="0.7" stroke-linecap="round" stroke-linejoin="round"/>
<path d="M258.545 158.991C258.545 158.991 247.597 161.7 243.81 165.9" stroke="#263238" stroke-width="0.7" stroke-linecap="round" stroke-linejoin="round"/>
<path d="M244.93 193.2C244.93 193.2 263.732 207.55 265.713 228.83L261.751 157.577" stroke="#263238" stroke-width="1.4" stroke-linecap="round" stroke-linejoin="round"/>
<path d="M268.681 228.347C268.681 228.347 254.331 123.942 295.897 123.942" stroke="#263238" stroke-width="1.4" stroke-linecap="round" stroke-linejoin="round"/>
<path d="M321.594 143.444C316.995 140.721 311.913 140.644 309.421 137.788C306.929 134.932 311.822 133.469 314.44 134.554C317.058 135.639 323.127 138.754 324.275 139.454C325.423 140.154 324.632 130.193 322.497 126.448C320.362 122.703 314.531 120.526 311.619 123.585C305.473 130.039 295.89 121.576 296.548 116.536C297.206 111.496 292.495 106.036 282.387 109.242C272.279 112.448 276.045 114.191 276.045 114.191C276.045 114.191 283.227 118.587 287.826 121.31C292.425 124.033 300.041 126.364 298.41 128.345C296.779 130.326 292.362 129.115 288.68 126.161C284.998 123.207 274.4 116.158 273.329 118.776C272.258 121.394 268.429 128.576 268.429 128.576C273.109 129.294 277.737 130.32 282.282 131.649C288.435 133.581 289.695 136.962 284.886 137.249C280.077 137.536 271.348 133.903 268.625 138.502C265.902 143.101 267.771 154.91 267.771 154.91C267.771 154.91 276.577 148.939 281.071 148.96C285.565 148.981 282.688 151.473 277.669 154.707C275.49 156.038 273.387 157.49 271.369 159.054L275.947 170.8C275.947 170.8 283.5 169.834 286.482 170.044L289.464 170.254C289.464 170.254 289.464 157.976 292.964 154.336C296.464 150.696 297.122 159.117 297.864 161.266C298.606 163.415 296.366 169.848 296.366 169.848C296.366 169.848 305.088 165.074 307.916 163.177L310.716 161.28C310.716 161.28 307.454 152.362 305.235 149.814C303.016 147.266 299.999 147.644 302.554 145.432C305.109 143.22 308.91 144.382 311.087 147.532C313.264 150.682 315.861 156.8 315.861 156.8C315.861 156.8 319.116 157.325 323.351 152.537C327.586 147.749 326.2 146.16 321.594 143.444ZM281.617 156.961C278.236 155.274 286.3 151.9 286.3 151.9C289.219 151.473 284.998 158.655 281.617 156.961ZM287.308 141.19C285.866 140.49 290.192 139.034 290.192 139.034C296.429 140.231 288.75 141.911 287.308 141.19Z" fill="#19B0B6"/>
<path d="M281.526 165.571C280.653 166.504 279.75 167.405 278.817 168.273" stroke="#263238" stroke-width="0.7" stroke-linecap="round" stroke-linejoin="round"/>
<path d="M298.9 139.3C295.666 146.034 290.78 154.826 284.347 162.463" stroke="#263238" stroke-width="0.7" stroke-linecap="round" stroke-linejoin="round"/>
<path d="M300.426 135.905C302.456 131.376 303.492 128.387 303.492 128.387C303.492 128.387 307.265 130.151 310.919 129.213C313.078 128.647 315.34 128.602 317.52 129.08" stroke="#263238" stroke-width="0.7" stroke-linecap="round" stroke-linejoin="round"/>
<path d="M296.751 134.799C297.71 133.973 282.954 126.637 282.954 126.637" stroke="#263238" stroke-width="0.7" stroke-linecap="round" stroke-linejoin="round"/>
<path d="M304.5 139.244C304.5 139.244 311.5 142.128 315.364 146.594" stroke="#263238" stroke-width="0.7" stroke-linecap="round" stroke-linejoin="round"/>
<path d="M295.204 143.976C291.466 143.344 287.675 143.077 283.885 143.178C280.075 143.222 276.295 143.864 272.685 145.082" stroke="#263238" stroke-width="0.7" stroke-linecap="round" stroke-linejoin="round"/>
<path d="M296.975 148.589C296.975 148.589 304.71 153.629 304.563 159.908" stroke="#263238" stroke-width="0.7" stroke-linecap="round" stroke-linejoin="round"/>
<path d="M240.863 132.216C240.863 132.216 236.215 135.597 233.254 132.216C230.293 128.835 234.5 122.08 230.3 119.546C226.1 117.012 219.317 121.646 219.317 121.646C219.317 121.646 224.805 122.913 224.805 125.846C224.805 128.779 222.271 130.046 221.851 128.807C221.431 127.568 218.47 121.198 214.249 124.159C213.028 124.979 211.987 126.038 211.188 127.273C210.389 128.507 209.849 129.892 209.601 131.341C209.601 131.341 219.737 129.647 220.584 133.441C221.431 137.235 216.384 133.021 212.135 133.021C207.886 133.021 204.106 133.868 204.526 136.402C204.758 138.648 204.758 140.911 204.526 143.157C204.526 143.157 207.907 139.783 212.555 139.783C217.203 139.783 217.203 142.737 212.975 142.737C208.747 142.737 205.373 146.937 205.373 146.937C205.373 146.937 209.573 153.272 214.669 156.226C219.765 159.18 221.424 157.92 221.851 155.386C222.278 152.852 220.584 146.51 223.538 146.51C226.492 146.51 219.338 157.92 223.118 158.34C226.898 158.76 229.873 157.493 230.72 154.959L231.567 152.425C231.567 152.425 229.873 146.125 230.3 143.556C230.727 140.987 231.567 143.556 232.4 146.51C233.233 149.464 234.087 156.653 235.354 156.226C236.621 155.799 240.422 150.311 241.269 148.204C242.116 146.097 235.354 140.175 235.354 138.908C235.354 137.641 240.422 139.755 241.269 141.008C241.883 141.962 242.446 142.948 242.956 143.962C242.956 143.962 245.917 141.862 245.49 135.933C245.063 130.004 240.863 132.216 240.863 132.216Z" fill="#19B0B6"/>
<path d="M217.196 147.539C220.115 143.458 224.448 137.921 228.186 135.177" stroke="#263238" stroke-width="0.7" stroke-linecap="round" stroke-linejoin="round"/>
<path d="M213.822 152.495C213.822 152.495 214.564 151.326 215.775 149.562" stroke="#263238" stroke-width="0.7" stroke-linecap="round" stroke-linejoin="round"/>
<path d="M230.3 136.017C230.3 136.017 235.368 142.359 236.635 149.114" stroke="#263238" stroke-width="0.7" stroke-linecap="round" stroke-linejoin="round"/>
<path d="M225.232 140.245C225.232 140.245 226.499 139.398 226.499 147.847" stroke="#263238" stroke-width="0.7" stroke-linecap="round" stroke-linejoin="round"/>
<path d="M228.2 132.216C228.2 132.216 230.734 129.682 229.047 125.034" stroke="#263238" stroke-width="0.7" stroke-linecap="round" stroke-linejoin="round"/>
<path d="M224.805 136.444L222.698 133.063" stroke="#263238" stroke-width="0.7" stroke-linecap="round" stroke-linejoin="round"/>
<path d="M221.004 140.245C221.004 140.245 214.669 136.045 210.868 136.045" stroke="#263238" stroke-width="0.7" stroke-linecap="round" stroke-linejoin="round"/>
<path d="M245.21 185.43C245.21 185.43 258.573 178.01 259.56 194.831C260.176 205.226 261.352 250.943 262.164 284.368" stroke="#263238" stroke-width="1.4" stroke-linecap="round" stroke-linejoin="round"/>
<path d="M266.504 196.315C266.504 196.315 258.3 214.627 259.364 284.361" stroke="#263238" stroke-width="1.4" stroke-linecap="round" stroke-linejoin="round"/>
<path d="M255.794 188.818C255.794 188.818 260.904 192.094 263.816 188.349C266.728 184.604 261.849 177.73 266.147 174.797C270.445 171.864 277.858 176.344 277.858 176.344C277.858 176.344 272.146 178.017 272.328 181.139C272.51 184.261 275.268 185.437 275.632 184.072C275.996 182.707 278.719 175.84 283.332 178.696C284.67 179.486 285.834 180.539 286.753 181.791C287.672 183.044 288.328 184.47 288.68 185.983C288.68 185.983 277.886 184.835 277.228 188.895C276.57 192.955 281.659 188.195 286.111 187.922C290.563 187.649 294.63 188.314 294.343 191.016C294.056 193.718 294.763 198.142 294.763 198.142C294.763 198.142 290.99 194.789 286.09 195.076C281.19 195.363 281.372 198.485 285.824 198.219C290.276 197.953 294.105 202.202 294.105 202.202C294.105 202.202 290.045 209.146 284.886 212.583C279.727 216.02 277.886 214.781 277.256 212.135C276.626 209.489 278.047 202.706 274.925 202.888C271.803 203.07 280.091 214.655 276.108 215.334C272.125 216.013 268.926 214.865 267.876 212.247L266.826 209.622C266.826 209.622 268.226 202.839 267.617 200.193C267.008 197.547 266.28 200.27 265.573 203.441C264.866 206.612 264.418 214.235 263.053 213.871C261.688 213.507 257.341 207.949 256.319 205.772C255.297 203.595 262.059 196.938 261.982 195.608C261.905 194.278 256.683 196.812 255.871 198.198C255.284 199.245 254.751 200.323 254.275 201.425C254.275 201.425 251.027 199.381 251.104 193.116C251.181 186.851 255.794 188.818 255.794 188.818Z" fill="#19B0B6"/>
<path opacity="0.3" d="M255.794 188.818C255.794 188.818 260.904 192.094 263.816 188.349C266.728 184.604 261.849 177.73 266.147 174.797C270.445 171.864 277.858 176.344 277.858 176.344C277.858 176.344 272.146 178.017 272.328 181.139C272.51 184.261 275.268 185.437 275.632 184.072C275.996 182.707 278.719 175.84 283.332 178.696C284.67 179.486 285.834 180.539 286.753 181.791C287.672 183.044 288.328 184.47 288.68 185.983C288.68 185.983 277.886 184.835 277.228 188.895C276.57 192.955 281.659 188.195 286.111 187.922C290.563 187.649 294.63 188.314 294.343 191.016C294.056 193.718 294.763 198.142 294.763 198.142C294.763 198.142 290.99 194.789 286.09 195.076C281.19 195.363 281.372 198.485 285.824 198.219C290.276 197.953 294.105 202.202 294.105 202.202C294.105 202.202 290.045 209.146 284.886 212.583C279.727 216.02 277.886 214.781 277.256 212.135C276.626 209.489 278.047 202.706 274.925 202.888C271.803 203.07 280.091 214.655 276.108 215.334C272.125 216.013 268.926 214.865 267.876 212.247L266.826 209.622C266.826 209.622 268.226 202.839 267.617 200.193C267.008 197.547 266.28 200.27 265.573 203.441C264.866 206.612 264.418 214.235 263.053 213.871C261.688 213.507 257.341 207.949 256.319 205.772C255.297 203.595 262.059 196.938 261.982 195.608C261.905 194.278 256.683 196.812 255.871 198.198C255.284 199.245 254.751 200.323 254.275 201.425C254.275 201.425 251.027 199.381 251.104 193.116C251.181 186.851 255.794 188.818 255.794 188.818Z" fill="#263238"/>
<path d="M281.701 203.504C278.369 199.381 273.462 193.809 269.346 191.149" stroke="#263238" stroke-width="0.7" stroke-linecap="round" stroke-linejoin="round"/>
<path d="M285.6 208.523C285.6 208.523 284.746 207.333 283.36 205.548" stroke="#263238" stroke-width="0.7" stroke-linecap="round" stroke-linejoin="round"/>
<path d="M267.169 192.171C267.169 192.171 262.22 199.171 261.303 206.374" stroke="#263238" stroke-width="0.7" stroke-linecap="round" stroke-linejoin="round"/>
<path d="M272.776 196.308C272.776 196.308 271.376 195.496 271.915 204.407" stroke="#263238" stroke-width="0.7" stroke-linecap="round" stroke-linejoin="round"/>
<path d="M269.157 188.027C269.157 188.027 266.357 185.514 267.82 180.509" stroke="#263238" stroke-width="0.7" stroke-linecap="round" stroke-linejoin="round"/>
<path d="M272.986 192.276L275.002 188.58" stroke="#263238" stroke-width="0.7" stroke-linecap="round" stroke-linejoin="round"/>
<path d="M277.235 196.049C277.235 196.049 283.654 191.198 287.658 190.96" stroke="#263238" stroke-width="0.7" stroke-linecap="round" stroke-linejoin="round"/>
<path d="M237.58 175.616C237.58 175.616 237.783 182.966 243.516 183.316C249.249 183.666 252.805 174.111 258.671 176.414C264.537 178.717 265.111 189.196 265.111 189.196C265.111 189.196 259.511 184.618 256.543 186.928C253.575 189.238 254.24 192.794 255.843 192.234C257.446 191.674 266.189 189.721 266.497 196.308C266.617 198.186 266.356 200.068 265.728 201.842C265.1 203.615 264.118 205.243 262.843 206.626C262.843 206.626 256.641 195.034 252.126 197.148C247.611 199.262 255.857 201.096 259.126 205.38C262.395 209.664 264.6 214.2 261.674 215.733C258.748 217.266 254.828 221.011 254.828 221.011C254.828 221.011 255.612 214.949 251.979 210.238C248.346 205.527 245.357 207.837 248.654 212.121C251.951 216.405 250.313 223.125 250.313 223.125C250.313 223.125 240.59 223.79 233.639 220.969C226.688 218.148 226.639 215.439 228.886 213.031C231.133 210.623 238.861 207.382 236.551 204.386C234.241 201.39 228.291 217.574 224.896 214.053C221.501 210.532 220.5 206.542 222.383 203.7L224.287 200.865C224.287 200.865 232.029 197.631 234.269 195.223C236.509 192.815 233.282 193.935 229.621 195.391C225.96 196.847 218.029 201.593 217.469 199.983C216.909 198.373 219.499 190.225 220.969 187.719C222.439 185.213 233.723 187.446 235.004 186.452C236.285 185.458 230.188 181.979 228.249 182.112C226.8 182.236 225.358 182.434 223.93 182.707C223.93 182.707 223.762 178.059 230.083 173.866C236.404 169.673 237.58 175.616 237.58 175.616Z" fill="#19B0B6"/>
<path opacity="0.2" d="M237.58 175.616C237.58 175.616 237.783 182.966 243.516 183.316C249.249 183.666 252.805 174.111 258.671 176.414C264.537 178.717 265.111 189.196 265.111 189.196C265.111 189.196 259.511 184.618 256.543 186.928C253.575 189.238 254.24 192.794 255.843 192.234C257.446 191.674 266.189 189.721 266.497 196.308C266.617 198.186 266.356 200.068 265.728 201.842C265.1 203.615 264.118 205.243 262.843 206.626C262.843 206.626 256.641 195.034 252.126 197.148C247.611 199.262 255.857 201.096 259.126 205.38C262.395 209.664 264.6 214.2 261.674 215.733C258.748 217.266 254.828 221.011 254.828 221.011C254.828 221.011 255.612 214.949 251.979 210.238C248.346 205.527 245.357 207.837 248.654 212.121C251.951 216.405 250.313 223.125 250.313 223.125C250.313 223.125 240.59 223.79 233.639 220.969C226.688 218.148 226.639 215.439 228.886 213.031C231.133 210.623 238.861 207.382 236.551 204.386C234.241 201.39 228.291 217.574 224.896 214.053C221.501 210.532 220.5 206.542 222.383 203.7L224.287 200.865C224.287 200.865 232.029 197.631 234.269 195.223C236.509 192.815 233.282 193.935 229.621 195.391C225.96 196.847 218.029 201.593 217.469 199.983C216.909 198.373 219.499 190.225 220.969 187.719C222.439 185.213 233.723 187.446 235.004 186.452C236.285 185.458 230.188 181.979 228.249 182.112C226.8 182.236 225.358 182.434 223.93 182.707C223.93 182.707 223.762 178.059 230.083 173.866C236.404 169.673 237.58 175.616 237.58 175.616Z" fill="#263238"/>
<path d="M240.534 211.568C242.389 205.422 244.622 196.7 244.482 190.771" stroke="#263238" stroke-width="0.7" stroke-linecap="round" stroke-linejoin="round"/>
<path d="M238.147 218.855C238.147 218.855 238.756 217.182 239.596 214.578" stroke="#263238" stroke-width="0.7" stroke-linecap="round" stroke-linejoin="round"/>
<path d="M241.976 189.287C241.976 189.287 231.595 189.098 223.776 193.095" stroke="#263238" stroke-width="0.7" stroke-linecap="round" stroke-linejoin="round"/>
<path d="M241.654 197.722C241.654 197.722 241.521 195.783 232.96 202.377" stroke="#263238" stroke-width="0.7" stroke-linecap="round" stroke-linejoin="round"/>
<path d="M247.478 188.461C247.478 188.461 248.066 183.911 254.1 181.993" stroke="#263238" stroke-width="0.7" stroke-linecap="round" stroke-linejoin="round"/>
<path d="M245.84 195.181L250.915 194.684" stroke="#263238" stroke-width="0.7" stroke-linecap="round" stroke-linejoin="round"/>
<path d="M244.951 202.006C244.951 202.006 254.184 205.128 257.152 209.006" stroke="#263238" stroke-width="0.7" stroke-linecap="round" stroke-linejoin="round"/>
<path d="M299.152 224.525C299.152 224.525 279.3 237.657 272.601 284.2" stroke="#263238" stroke-width="1.4" stroke-linecap="round" stroke-linejoin="round"/>
<path d="M263.151 219.429C263.151 219.429 264.082 227.885 270.732 227.759C277.382 227.633 280.581 216.258 287.567 218.365C294.553 220.472 296.205 232.505 296.205 232.505C296.205 232.505 289.338 227.752 286.097 230.699C282.856 233.646 283.997 237.699 285.81 236.887C287.623 236.075 297.507 233.009 298.48 240.583C298.797 242.737 298.674 244.934 298.119 247.039C297.563 249.145 296.586 251.116 295.246 252.833C295.246 252.833 287 240.044 281.981 242.9C276.962 245.756 286.657 247.1 290.864 251.734C295.071 256.368 297.941 261.373 294.742 263.438C291.543 265.503 287.336 270.2 287.336 270.2C287.336 270.2 287.672 263.13 283.038 258.041C278.404 252.952 275.163 255.892 279.377 260.526C283.591 265.16 282.331 273.07 282.331 273.07C282.331 273.07 271.173 274.757 262.885 272.146C254.597 269.535 254.289 266.427 256.648 263.438C259.007 260.449 267.631 255.983 264.684 252.742C261.737 249.501 256.396 268.744 252.147 264.999C247.898 261.254 246.33 256.753 248.269 253.295L250.201 249.844C250.201 249.844 258.832 245.378 261.184 242.389C263.536 239.4 259.924 240.989 255.836 243.026C251.748 245.063 243.047 251.279 242.242 249.473C241.437 247.667 243.642 238.021 245.14 234.99C246.638 231.959 259.84 233.464 261.24 232.19C262.64 230.916 255.262 227.479 253.036 227.815C251.385 228.095 249.749 228.462 248.136 228.914C248.136 228.914 247.499 223.566 254.401 218.134C261.303 212.702 263.151 219.429 263.151 219.429Z" fill="#19B0B6"/>
<path opacity="0.3" d="M263.151 219.429C263.151 219.429 264.082 227.885 270.732 227.759C277.382 227.633 280.581 216.258 287.567 218.365C294.553 220.472 296.205 232.505 296.205 232.505C296.205 232.505 289.338 227.752 286.097 230.699C282.856 233.646 283.997 237.699 285.81 236.887C287.623 236.075 297.507 233.009 298.48 240.583C298.797 242.737 298.674 244.934 298.119 247.039C297.563 249.145 296.586 251.116 295.246 252.833C295.246 252.833 287 240.044 281.981 242.9C276.962 245.756 286.657 247.1 290.864 251.734C295.071 256.368 297.941 261.373 294.742 263.438C291.543 265.503 287.336 270.2 287.336 270.2C287.336 270.2 287.672 263.13 283.038 258.041C278.404 252.952 275.163 255.892 279.377 260.526C283.591 265.16 282.331 273.07 282.331 273.07C282.331 273.07 271.173 274.757 262.885 272.146C254.597 269.535 254.289 266.427 256.648 263.438C259.007 260.449 267.631 255.983 264.684 252.742C261.737 249.501 256.396 268.744 252.147 264.999C247.898 261.254 246.33 256.753 248.269 253.295L250.201 249.844C250.201 249.844 258.832 245.378 261.184 242.389C263.536 239.4 259.924 240.989 255.836 243.026C251.748 245.063 243.047 251.279 242.242 249.473C241.437 247.667 243.642 238.021 245.14 234.99C246.638 231.959 259.84 233.464 261.24 232.19C262.64 230.916 255.262 227.479 253.036 227.815C251.385 228.095 249.749 228.462 248.136 228.914C248.136 228.914 247.499 223.566 254.401 218.134C261.303 212.702 263.151 219.429 263.151 219.429Z" fill="#263238"/>
<path d="M269.955 260.631C271.516 253.365 273.273 243.096 272.545 236.257" stroke="#263238" stroke-width="0.7" stroke-linecap="round" stroke-linejoin="round"/>
<path d="M267.89 269.262C267.89 269.262 268.436 267.281 269.157 264.201" stroke="#263238" stroke-width="0.7" stroke-linecap="round" stroke-linejoin="round"/>
<path d="M269.5 234.787C269.5 234.787 257.502 235.55 248.836 240.898" stroke="#263238" stroke-width="0.7" stroke-linecap="round" stroke-linejoin="round"/>
<path d="M269.941 244.552C269.941 244.552 269.605 242.319 260.344 250.747" stroke="#263238" stroke-width="0.7" stroke-linecap="round" stroke-linejoin="round"/>
<path d="M275.8 233.31C275.8 233.31 276.052 228.004 282.8 225.225" stroke="#263238" stroke-width="0.7" stroke-linecap="round" stroke-linejoin="round"/>
<path d="M274.526 241.227L280.336 240.17" stroke="#263238" stroke-width="0.7" stroke-linecap="round" stroke-linejoin="round"/>
<path d="M274.155 249.2C274.155 249.2 285.096 251.937 288.89 256.102" stroke="#263238" stroke-width="0.7" stroke-linecap="round" stroke-linejoin="round"/>
<path d="M268.933 283.969L270.942 247.779" stroke="#263238" stroke-width="1.4" stroke-linecap="round" stroke-linejoin="round"/>
<path d="M266.385 284.368C266.812 253.918 262.458 214.13 236.803 214.13" stroke="#263238" stroke-width="1.4" stroke-linecap="round" stroke-linejoin="round"/>
<path d="M211.099 233.632C215.698 230.916 220.787 230.832 223.279 227.983C225.771 225.134 220.878 223.664 218.26 224.742C215.642 225.82 209.573 228.942 208.418 229.642C207.263 230.342 208.068 220.388 210.196 216.643C212.324 212.898 218.162 210.721 221.074 213.78C227.22 220.234 236.803 211.771 236.152 206.724C235.501 201.677 240.205 196.259 250.313 199.437C260.421 202.615 256.648 204.379 256.648 204.379C256.648 204.379 249.473 208.782 244.874 211.498C240.275 214.214 232.652 216.552 234.29 218.533C235.928 220.514 240.331 219.31 244.02 216.349C247.709 213.388 258.286 206.36 259.371 208.978C260.456 211.596 264.271 218.813 264.271 218.813C259.588 219.535 254.958 220.563 250.411 221.893C244.258 223.825 242.998 227.206 247.807 227.493C252.616 227.78 261.352 224.14 264.068 228.739C266.784 233.338 264.929 245.147 264.929 245.147C264.929 245.147 256.123 239.183 251.629 239.204C247.135 239.225 250.012 241.71 255.031 244.951C257.208 246.285 259.311 247.736 261.331 249.298L256.76 261.002C256.76 261.002 249.207 260.036 246.26 260.246L243.278 260.456C243.278 260.456 243.278 248.178 239.778 244.531C236.278 240.884 235.627 249.319 234.878 251.468C234.129 253.617 236.383 260.043 236.383 260.043C236.383 260.043 227.661 255.269 224.833 253.372L222.033 251.475C222.033 251.475 225.295 242.564 227.507 240.009C229.719 237.454 232.743 237.846 230.195 235.627C227.647 233.408 223.832 234.584 221.655 237.727C219.478 240.87 216.923 247.044 216.923 247.044C216.923 247.044 213.668 247.576 209.44 242.781C205.212 237.986 206.5 236.355 211.099 233.632ZM251.076 247.156C254.457 245.469 246.435 242.088 246.435 242.088C243.474 241.661 247.702 248.843 251.076 247.156ZM245.385 231.385C246.827 230.685 242.508 229.222 242.508 229.222C236.264 230.426 243.95 232.106 245.385 231.385Z" fill="#19B0B6"/>
<path d="M251.167 255.759C252.049 256.692 252.952 257.595 253.876 258.468" stroke="#263238" stroke-width="0.7" stroke-linecap="round" stroke-linejoin="round"/>
<path d="M233.835 229.474C237.062 236.208 241.955 244.993 248.388 252.637" stroke="#263238" stroke-width="0.7" stroke-linecap="round" stroke-linejoin="round"/>
<path d="M232.267 226.1C230.244 221.571 229.201 218.582 229.201 218.582C229.201 218.582 225.435 220.346 221.774 219.408C219.618 218.839 217.357 218.794 215.18 219.275" stroke="#263238" stroke-width="0.7" stroke-linecap="round" stroke-linejoin="round"/>
<path d="M235.942 224.994C234.99 224.161 249.739 216.832 249.739 216.832" stroke="#263238" stroke-width="0.7" stroke-linecap="round" stroke-linejoin="round"/>
<path d="M228.2 229.432C228.2 229.432 221.2 232.323 217.336 236.789" stroke="#263238" stroke-width="0.7" stroke-linecap="round" stroke-linejoin="round"/>
<path d="M237.489 234.164C241.23 233.532 245.023 233.265 248.815 233.366C252.625 233.411 256.404 234.053 260.015 235.27" stroke="#263238" stroke-width="0.7" stroke-linecap="round" stroke-linejoin="round"/>
<path d="M235.718 238.784C235.718 238.784 228.018 243.824 228.13 250.103" stroke="#263238" stroke-width="0.7" stroke-linecap="round" stroke-linejoin="round"/>
<path d="M291.837 222.411C291.837 222.411 296.485 225.792 299.439 222.411C302.393 219.03 298.2 212.275 302.4 209.734C306.6 207.193 313.383 211.834 313.383 211.834C313.383 211.834 307.888 213.101 307.888 216.034C307.888 218.967 310.422 220.234 310.849 218.988C311.276 217.742 314.223 211.386 318.451 214.34C319.67 215.162 320.71 216.222 321.509 217.456C322.307 218.69 322.848 220.073 323.099 221.522C323.099 221.522 312.956 219.835 312.116 223.622C311.276 227.409 316.316 223.202 320.565 223.202C324.814 223.202 328.587 224.042 328.167 226.576C327.939 228.824 327.939 231.09 328.167 233.338C328.167 233.338 324.786 229.957 320.138 229.957C315.49 229.957 315.49 232.918 319.718 232.918C323.946 232.918 327.32 237.118 327.32 237.118C327.32 237.118 323.12 243.418 318.031 246.414C312.942 249.41 311.269 248.101 310.849 245.567C310.429 243.033 312.116 236.698 309.155 236.698C306.194 236.698 313.355 248.101 309.582 248.528C305.809 248.955 302.82 247.681 301.973 245.147L301.133 242.613C301.133 242.613 302.82 236.348 302.4 233.8C301.98 231.252 301.133 233.8 300.3 236.761C299.467 239.722 298.606 246.897 297.339 246.477C296.072 246.057 292.271 240.562 291.431 238.448C290.591 236.334 297.339 230.426 297.339 229.159C297.339 227.892 292.271 229.999 291.431 231.259C290.815 232.216 290.25 233.204 289.737 234.22C289.737 234.22 286.783 232.12 287.203 226.191C287.623 220.262 291.837 222.411 291.837 222.411Z" fill="#19B0B6"/>
<path d="M315.504 237.734C312.585 233.653 308.252 228.109 304.507 225.365" stroke="#263238" stroke-width="0.7" stroke-linecap="round" stroke-linejoin="round"/>
<path d="M318.871 242.69C318.871 242.69 318.129 241.514 316.918 239.757" stroke="#263238" stroke-width="0.7" stroke-linecap="round" stroke-linejoin="round"/>
<path d="M302.4 226.212C302.4 226.212 297.325 232.512 296.058 239.309" stroke="#263238" stroke-width="0.7" stroke-linecap="round" stroke-linejoin="round"/>
<path d="M307.468 230.44C307.468 230.44 306.201 229.593 306.201 238.042" stroke="#263238" stroke-width="0.7" stroke-linecap="round" stroke-linejoin="round"/>
<path d="M304.5 222.411C304.5 222.411 301.966 219.877 303.66 215.229" stroke="#263238" stroke-width="0.7" stroke-linecap="round" stroke-linejoin="round"/>
<path d="M307.888 226.632L310.002 223.258" stroke="#263238" stroke-width="0.7" stroke-linecap="round" stroke-linejoin="round"/>
<path d="M311.689 230.44C311.689 230.44 318.031 226.24 321.832 226.24" stroke="#263238" stroke-width="0.7" stroke-linecap="round" stroke-linejoin="round"/>
<path opacity="0.2" d="M196 24.346H40.6V228.984H196V24.346Z" fill="black"/>
<path d="M191.1 18.746H35.7V223.384H191.1V18.746Z" fill="white" stroke="#263238" stroke-width="0.7" stroke-linecap="round" stroke-linejoin="round"/>
<path d="M150.22 80.213H44.1V56.364H181.804V80.213H152.782" stroke="#263238" stroke-width="0.7" stroke-linecap="round" stroke-linejoin="round"/>
<path d="M52.696 108.423H44.1V96.096H119.266" stroke="#263238" stroke-width="0.7" stroke-linecap="round" stroke-linejoin="round"/>
<path d="M122.528 96.096H181.804V108.423H55.027" stroke="#263238" stroke-width="0.7" stroke-linecap="round" stroke-linejoin="round"/>
<path d="M160.23 133.371H44.1V121.044H181.804V133.371H162.792" stroke="#263238" stroke-width="0.7" stroke-linecap="round" stroke-linejoin="round"/>
<path d="M79.702 207.928H44.1V145.152H181.804V207.928H83.188" stroke="#263238" stroke-width="0.7" stroke-linecap="round" stroke-linejoin="round"/>
<path d="M181.804 145.152H44.1V156.121H181.804V145.152Z" fill="#D1D1D1" stroke="#263238" stroke-width="0.7" stroke-linecap="round" stroke-linejoin="round"/>
<path d="M109.557 80.675V96.117H44.1V80.213" stroke="#263238" stroke-width="0.7" stroke-linecap="round" stroke-linejoin="round"/>
<path d="M181.804 64.827H44.1V71.75H181.804V64.827Z" fill="#D1D1D1" stroke="#263238" stroke-width="0.7" stroke-linecap="round" stroke-linejoin="round"/>
<path d="M136.087 57.008V64.862" stroke="#263238" stroke-width="0.7" stroke-linecap="round" stroke-linejoin="round"/>
<path d="M153.79 58.324H144.41V62.909H153.79V58.324Z" fill="#D1D1D1" stroke="#263238" stroke-width="0.7" stroke-linecap="round" stroke-linejoin="round"/>
<path d="M114.17 71.967V80.29" stroke="#263238" stroke-width="0.7" stroke-linecap="round" stroke-linejoin="round"/>
<path d="M142.961 71.967V80.29" stroke="#263238" stroke-width="0.7" stroke-linecap="round" stroke-linejoin="round"/>
<path d="M69.433 96.117V80.325" stroke="#263238" stroke-width="0.7" stroke-linecap="round" stroke-linejoin="round"/>
<path d="M85.463 96.117V80.325" stroke="#263238" stroke-width="0.7" stroke-linecap="round" stroke-linejoin="round"/>
<path d="M102.942 96.194V108.206" stroke="#263238" stroke-width="0.7" stroke-linecap="round" stroke-linejoin="round"/>
<path d="M135.772 96.026V133.161" stroke="#263238" stroke-width="0.7" stroke-linecap="round" stroke-linejoin="round"/>
<path d="M44.1 108.423V121.058H135.821" stroke="#263238" stroke-width="0.7" stroke-linecap="round" stroke-linejoin="round"/>
<path d="M78.645 108.514V120.666" stroke="#263238" stroke-width="0.7" stroke-linecap="round" stroke-linejoin="round"/>
<path d="M173.733 166.341H181.874" stroke="#263238" stroke-width="0.7" stroke-linecap="round" stroke-linejoin="round"/>
<path d="M44.2889 166.341H170.702" stroke="#263238" stroke-width="0.7" stroke-linecap="round" stroke-linejoin="round"/>
<path d="M44.2889 176.253H181.874" stroke="#263238" stroke-width="0.7" stroke-linecap="round" stroke-linejoin="round"/>
<path d="M86.6809 186.123H181.874" stroke="#263238" stroke-width="0.7" stroke-linecap="round" stroke-linejoin="round"/>
<path d="M44.2889 186.123H83.1879" stroke="#263238" stroke-width="0.7" stroke-linecap="round" stroke-linejoin="round"/>
<path d="M70.49 169.071H65.835V173.726H70.49V169.071Z" fill="#D1D1D1" stroke="#263238" stroke-width="0.7" stroke-linecap="round" stroke-linejoin="round"/>
<path d="M97.1949 169.071H92.5399V173.726H97.1949V169.071Z" fill="#D1D1D1" stroke="#263238" stroke-width="0.7" stroke-linecap="round" stroke-linejoin="round"/>
<path d="M78.75 178.57H74.095V183.225H78.75V178.57Z" fill="#D1D1D1" stroke="#263238" stroke-width="0.7" stroke-linecap="round" stroke-linejoin="round"/>
<path d="M104.279 178.57H99.624V183.225H104.279V178.57Z" fill="#D1D1D1" stroke="#263238" stroke-width="0.7" stroke-linecap="round" stroke-linejoin="round"/>
<path d="M128.681 178.57H124.026V183.225H128.681V178.57Z" fill="#D1D1D1" stroke="#263238" stroke-width="0.7" stroke-linecap="round" stroke-linejoin="round"/>
<path d="M153.461 178.57H148.806V183.225H153.461V178.57Z" fill="#D1D1D1" stroke="#263238" stroke-width="0.7" stroke-linecap="round" stroke-linejoin="round"/>
<path d="M71.939 176.337V186.214" stroke="#263238" stroke-width="0.7" stroke-linecap="round" stroke-linejoin="round"/>
<path d="M96.908 176.337V186.214" stroke="#263238" stroke-width="0.7" stroke-linecap="round" stroke-linejoin="round"/>
<path d="M121.87 176.337V186.214" stroke="#263238" stroke-width="0.7" stroke-linecap="round" stroke-linejoin="round"/>
<path d="M146.832 176.337V186.214" stroke="#263238" stroke-width="0.7" stroke-linecap="round" stroke-linejoin="round"/>
<path d="M44.2889 196.189H181.874" stroke="#263238" stroke-width="0.7" stroke-linecap="round" stroke-linejoin="round"/>
<path d="M61.67 188.636H57.015V193.291H61.67V188.636Z" fill="#D1D1D1" stroke="#263238" stroke-width="0.7" stroke-linecap="round" stroke-linejoin="round"/>
<path d="M104.279 188.636H99.624V193.291H104.279V188.636Z" fill="#D1D1D1" stroke="#263238" stroke-width="0.7" stroke-linecap="round" stroke-linejoin="round"/>
<path d="M128.681 188.636H124.026V193.291H128.681V188.636Z" fill="#D1D1D1" stroke="#263238" stroke-width="0.7" stroke-linecap="round" stroke-linejoin="round"/>
<path d="M160.125 188.636H155.47V193.291H160.125V188.636Z" fill="#D1D1D1" stroke="#263238" stroke-width="0.7" stroke-linecap="round" stroke-linejoin="round"/>
<path d="M54.859 186.403V196.175" stroke="#263238" stroke-width="0.7" stroke-linecap="round" stroke-linejoin="round"/>
<path d="M96.908 186.403V196.175" stroke="#263238" stroke-width="0.7" stroke-linecap="round" stroke-linejoin="round"/>
<path d="M121.87 186.403V196.175" stroke="#263238" stroke-width="0.7" stroke-linecap="round" stroke-linejoin="round"/>
<path d="M153.496 186.403V196.175" stroke="#263238" stroke-width="0.7" stroke-linecap="round" stroke-linejoin="round"/>
<path d="M99.526 35.28V36.974H95.6831V44.212H93.8V27.496H100.443V29.19H95.669V35.28H99.526Z" fill="#263238"/>
<path d="M101.794 31.535C101.794 28.98 103.054 27.335 105.609 27.335C108.164 27.335 109.452 28.987 109.452 31.535V40.173C109.452 42.707 108.192 44.373 105.609 44.373C103.026 44.373 101.794 42.7 101.794 40.173V31.535ZM103.6 40.271C103.6 41.797 104.244 42.686 105.581 42.686C106.918 42.686 107.562 41.797 107.562 40.271V31.437C107.562 29.932 106.946 29.022 105.581 29.022C104.216 29.022 103.6 29.932 103.6 31.437V40.271Z" fill="#263238"/>
<path d="M114.947 27.496C117.572 27.496 118.671 28.833 118.671 31.318V32.676C118.671 34.517 118.027 35.665 116.571 36.12C118.097 36.568 118.671 37.814 118.671 39.62V42.224C118.616 42.9111 118.732 43.6011 119.007 44.233H117.124C116.858 43.5913 116.75 42.8951 116.809 42.203V39.557C116.809 37.667 115.927 37.072 114.373 37.072H113.064V44.212H111.202V27.496H114.947ZM114.471 35.378C115.948 35.378 116.83 34.902 116.83 33.082V31.5C116.83 29.995 116.284 29.204 114.898 29.204H113.085V35.392L114.471 35.378Z" fill="#263238"/>
<path d="M126.784 44.184H124.999L122.199 30.884V44.184H120.575V27.496H123.2L125.944 40.845L128.597 27.496H131.194V44.212H129.43V30.8L126.784 44.184Z" fill="#263238"/>
<path d="M85.981 52.395H101.143" stroke="#263238" stroke-width="0.7" stroke-miterlimit="10"/>
<path d="M44.618 52.395H83.426" stroke="#263238" stroke-width="0.7" stroke-miterlimit="10"/>
<path d="M113.113 52.395H146.531" stroke="#263238" stroke-width="0.7" stroke-miterlimit="10"/>
<path d="M155.61 52.395H182.014" stroke="#263238" stroke-width="0.7" stroke-miterlimit="10"/>
<path d="M161.658 288.785L213.612 286.65L241.983 321.132L171.92 327.236L161.658 288.785Z" fill="white" stroke="#263238" stroke-width="0.7" stroke-linecap="round" stroke-linejoin="round"/>
<path d="M172.151 312.529L228.312 308.616L232.015 313.278L173.712 317.709L172.151 312.529Z" stroke="#263238" stroke-width="0.35" stroke-linecap="round" stroke-linejoin="round"/>
<path d="M170.464 306.929L224.287 303.541L226.002 305.704L171.185 309.316L170.464 306.929Z" stroke="#263238" stroke-width="0.35" stroke-linecap="round" stroke-linejoin="round"/>
<path d="M169.099 302.4L221.011 299.411L222.6 301.413L169.757 304.591L169.099 302.4Z" stroke="#263238" stroke-width="0.35" stroke-linecap="round" stroke-linejoin="round"/>
<path d="M165.592 290.759L212.52 288.715L219.548 297.57L168.49 300.377L165.592 290.759Z" stroke="#263238" stroke-width="0.35" stroke-linecap="round" stroke-linejoin="round"/>
<path d="M167.944 298.564L218.225 295.904L219.548 297.57L168.49 300.377L167.944 298.564Z" fill="#D1D1D1" stroke="#263238" stroke-width="0.35" stroke-linecap="round" stroke-linejoin="round"/>
<path d="M202.531 310.317L200.858 307.356L226.002 305.704L228.312 308.616" stroke="#263238" stroke-width="0.35" stroke-linecap="round" stroke-linejoin="round"/>
<path d="M172.69 314.314L229.593 310.226L230.671 311.577L173.145 315.819L172.69 314.314Z" fill="#D1D1D1" stroke="#263238" stroke-width="0.35" stroke-linecap="round" stroke-linejoin="round"/>
<path d="M193.942 316.022L193.151 314.335" stroke="#263238" stroke-width="0.35" stroke-linecap="round" stroke-linejoin="round"/>
<path d="M185.682 315.322L189.763 315.021L190.197 316.008L186.088 316.323L185.682 315.322Z" fill="#D1D1D1" stroke="#263238" stroke-width="0.35" stroke-linecap="round" stroke-linejoin="round"/>
<path d="M201.614 312.193L200.697 310.527" stroke="#263238" stroke-width="0.35" stroke-linecap="round" stroke-linejoin="round"/>
<path d="M189.539 313.061L188.783 311.353" stroke="#263238" stroke-width="0.35" stroke-linecap="round" stroke-linejoin="round"/>
<path d="M216.461 306.327L218.54 309.274" stroke="#263238" stroke-width="0.35" stroke-linecap="round" stroke-linejoin="round"/>
<path d="M210.301 306.733L212.233 309.715" stroke="#263238" stroke-width="0.35" stroke-linecap="round" stroke-linejoin="round"/>
<path d="M203.469 307.167L202.174 304.976" stroke="#263238" stroke-width="0.35" stroke-linecap="round" stroke-linejoin="round"/>
<path d="M190.344 308.063L187.208 301.392" stroke="#263238" stroke-width="0.35" stroke-linecap="round" stroke-linejoin="round"/>
<path d="M224.287 303.541L222.6 301.413L188.167 303.485" stroke="#263238" stroke-width="0.35" stroke-linecap="round" stroke-linejoin="round"/>
<path d="M211.428 304.339L210.014 302.239" stroke="#263238" stroke-width="0.35" stroke-linecap="round" stroke-linejoin="round"/>
<path d="M216.972 294.406L167.426 296.933" stroke="#263238" stroke-width="0.35" stroke-linecap="round" stroke-linejoin="round"/>
<path d="M215.845 292.992L166.957 295.393" stroke="#263238" stroke-width="0.35" stroke-linecap="round" stroke-linejoin="round"/>
<path d="M214.76 291.62L166.509 293.902" stroke="#263238" stroke-width="0.35" stroke-linecap="round" stroke-linejoin="round"/>
<path d="M207.235 293.79L208.824 293.713L209.307 294.385L207.704 294.462L207.235 293.79Z" fill="#D1D1D1" stroke="#263238" stroke-width="0.35" stroke-linecap="round" stroke-linejoin="round"/>
<path d="M197.953 294.252L199.584 294.168L200.011 294.854L198.373 294.938L197.953 294.252Z" fill="#D1D1D1" stroke="#263238" stroke-width="0.35" stroke-linecap="round" stroke-linejoin="round"/>
<path d="M203.469 292.572L205.058 292.495L205.513 293.153L203.917 293.23L203.469 292.572Z" fill="#D1D1D1" stroke="#263238" stroke-width="0.35" stroke-linecap="round" stroke-linejoin="round"/>
<path d="M194.656 292.992L196.28 292.915L196.679 293.587L195.048 293.664L194.656 292.992Z" fill="#D1D1D1" stroke="#263238" stroke-width="0.35" stroke-linecap="round" stroke-linejoin="round"/>
<path d="M186.046 293.405L187.705 293.328L188.048 294.007L186.382 294.084L186.046 293.405Z" fill="#D1D1D1" stroke="#263238" stroke-width="0.35" stroke-linecap="round" stroke-linejoin="round"/>
<path d="M177.121 293.832L178.808 293.755L179.102 294.441L177.401 294.525L177.121 293.832Z" fill="#D1D1D1" stroke="#263238" stroke-width="0.35" stroke-linecap="round" stroke-linejoin="round"/>
<path d="M206.472 293.44L205.499 292.047" stroke="#263238" stroke-width="0.35" stroke-linecap="round" stroke-linejoin="round"/>
<path d="M197.827 293.86L196.959 292.446" stroke="#263238" stroke-width="0.35" stroke-linecap="round" stroke-linejoin="round"/>
<path d="M188.993 294.294L188.244 292.859" stroke="#263238" stroke-width="0.35" stroke-linecap="round" stroke-linejoin="round"/>
<path d="M179.963 294.742L179.333 293.279" stroke="#263238" stroke-width="0.35" stroke-linecap="round" stroke-linejoin="round"/>
<path d="M213.682 290.262L166.068 292.425" stroke="#263238" stroke-width="0.35" stroke-linecap="round" stroke-linejoin="round"/>
<path d="M208.25 290.913L209.797 290.843L210.266 291.473L208.719 291.55L208.25 290.913Z" fill="#D1D1D1" stroke="#263238" stroke-width="0.35" stroke-linecap="round" stroke-linejoin="round"/>
<path d="M193.83 291.578L195.426 291.501L195.818 292.152L194.208 292.229L193.83 291.578Z" fill="#D1D1D1" stroke="#263238" stroke-width="0.35" stroke-linecap="round" stroke-linejoin="round"/>
<path d="M185.332 291.963L186.963 291.893L187.306 292.551L185.661 292.628L185.332 291.963Z" fill="#D1D1D1" stroke="#263238" stroke-width="0.35" stroke-linecap="round" stroke-linejoin="round"/>
<path d="M174.125 292.481L175.805 292.404L176.071 293.076L174.384 293.153L174.125 292.481Z" fill="#D1D1D1" stroke="#263238" stroke-width="0.35" stroke-linecap="round" stroke-linejoin="round"/>
<path d="M211.218 291.746L210.217 290.416" stroke="#263238" stroke-width="0.35" stroke-linecap="round" stroke-linejoin="round"/>
<path d="M196.945 292.425L196.119 291.06" stroke="#263238" stroke-width="0.35" stroke-linecap="round" stroke-linejoin="round"/>
<path d="M188.23 292.831L187.509 291.452" stroke="#263238" stroke-width="0.35" stroke-linecap="round" stroke-linejoin="round"/>
<path d="M176.918 293.37L176.344 291.963" stroke="#263238" stroke-width="0.35" stroke-linecap="round" stroke-linejoin="round"/>
<path d="M212.331 319.62L212.1 319.235L213.752 319.102L212.758 317.485L213.549 317.422L215.894 321.216L213.003 321.461L212.772 321.062L214.872 320.887L214.011 319.487L212.331 319.62Z" fill="#263238"/>
<path d="M211.862 320.6C212.219 321.195 211.862 321.629 210.77 321.727C209.678 321.825 208.852 321.482 208.516 320.88L207.396 318.892C207.074 318.325 207.396 317.905 208.509 317.821C209.622 317.737 210.364 318.059 210.693 318.626L211.862 320.6ZM209.895 318.668C209.768 318.483 209.59 318.34 209.382 318.256C209.173 318.173 208.945 318.153 208.726 318.199C208.145 318.241 207.991 318.465 208.187 318.808L209.342 320.831C209.468 321.025 209.65 321.176 209.864 321.265C210.077 321.353 210.313 321.375 210.539 321.328C211.12 321.279 211.281 321.041 211.078 320.691L209.895 318.668Z" fill="#263238"/>
<path d="M206.619 322C205.45 322.098 204.792 321.818 204.484 321.23L204.309 320.915C204.085 320.488 204.225 320.215 204.799 320.04C204.532 320.057 204.264 320.001 204.026 319.877C203.788 319.754 203.589 319.568 203.448 319.34L203.133 318.752C203.054 318.568 202.919 318.414 202.748 318.311L203.567 318.241C203.734 318.351 203.865 318.506 203.945 318.689L204.267 319.284C204.505 319.718 204.967 319.823 205.667 319.767L206.241 319.725L205.352 318.108L206.15 318.038L208.299 321.888L206.619 322ZM205.8 320.131C205.156 320.187 204.827 320.327 205.051 320.754L205.254 321.125C205.443 321.482 205.786 321.643 206.402 321.594L207.207 321.531L206.409 320.082L205.8 320.131Z" fill="#263238"/>
<path d="M199.374 318.556L200.158 318.493L202.958 321.468L201.362 318.388L202.062 318.332L204.092 322.21L202.93 322.308L200.13 319.284L200.515 322.518L199.339 322.616L197.442 318.703L198.212 318.64L199.752 321.762L199.374 318.556Z" fill="#263238"/>
<path d="M232.456 314.104L209.377 315.882" stroke="#263238" stroke-width="0.35" stroke-miterlimit="10"/>
<path d="M204.316 316.274L189.84 317.387" stroke="#263238" stroke-width="0.35" stroke-miterlimit="10"/>
<path d="M185.815 317.702L173.887 318.619" stroke="#263238" stroke-width="0.35" stroke-miterlimit="10"/>
<path d="M210 178.731C205.033 180.201 200.194 182.074 195.531 184.331C187.831 188.069 172.669 193.669 165.431 196.469C158.193 199.269 153.769 206.5 152.369 210C150.969 213.5 144.9 228.431 144.9 228.431C144.9 228.431 132.069 248.5 128.8 253.4C125.531 258.3 121.1 265.069 120.869 271.369C120.638 277.669 124.131 281.169 132.3 281.169C140.469 281.169 143.969 278.369 147.931 274.169C151.893 269.969 164.731 249.431 166.6 247.1C168.469 244.769 173.6 235.9 173.6 235.9C173.6 235.9 176.169 259 176.169 266.231V283.269H249.669C249.669 283.269 253.169 257.6 253.869 255.5C254.569 253.4 259.931 238.231 259.931 238.231C259.931 238.231 279.3 269.5 282.534 273.7C285.768 277.9 295.001 286.748 304.045 283.206C313.089 279.664 311.234 269.962 306.334 258.3C301.434 246.638 292.831 226.8 292.831 225.855C292.831 224.91 289.331 211.155 275.1 200.417C260.869 189.679 246.869 187.117 243.6 185.486C240.331 183.855 229.831 178.731 210 178.731Z" fill="#19B0B6" stroke="#263238" stroke-width="0.7" stroke-linecap="round" stroke-linejoin="round"/>
<path d="M164.269 220.731L173.369 234.969C173.369 234.969 165.9 227.269 161.231 226.1" stroke="#263238" stroke-width="0.7" stroke-linecap="round" stroke-linejoin="round"/>
<path d="M173.369 234.969L168 233.1C168 233.1 163.1 230.3 159.131 231.469" stroke="#263238" stroke-width="0.7" stroke-linecap="round" stroke-linejoin="round"/>
<path d="M201.278 200.9C201.803 204.743 203.014 209.517 205.8 212.8" stroke="#263238" stroke-width="0.7" stroke-linecap="round" stroke-linejoin="round"/>
<path d="M200.9 194.6C200.9 194.6 200.851 195.937 200.977 197.953" stroke="#263238" stroke-width="0.7" stroke-linecap="round" stroke-linejoin="round"/>
<path d="M203.455 215.6C204.112 216.272 204.814 216.898 205.555 217.476" stroke="#263238" stroke-width="0.7" stroke-linecap="round" stroke-linejoin="round"/>
<path d="M196.931 205.1C198.205 208.555 200.085 211.755 202.482 214.55" stroke="#263238" stroke-width="0.7" stroke-linecap="round" stroke-linejoin="round"/>
<path d="M243.019 257.236C241.43 259.819 239.925 261.905 238.7 262.969" stroke="#263238" stroke-width="0.7" stroke-linecap="round" stroke-linejoin="round"/>
<path d="M254.8 234.031C254.8 234.031 249.375 246.295 244.3 255.031" stroke="#263238" stroke-width="0.7" stroke-linecap="round" stroke-linejoin="round"/>
<path d="M230.944 264.915C230.244 265.762 229.705 266.469 229.369 266.931" stroke="#263238" stroke-width="0.7" stroke-linecap="round" stroke-linejoin="round"/>
<path d="M239.869 254.331C239.869 254.331 235.571 259.329 232.4 263.2" stroke="#263238" stroke-width="0.7" stroke-linecap="round" stroke-linejoin="round"/>
<path d="M259.931 238.231C259.931 238.231 270.2 221.9 270.669 220.5" stroke="#263238" stroke-width="0.7" stroke-linecap="round" stroke-linejoin="round"/>
<path d="M267.785 231.938C270.837 229.467 275.422 226.338 280 225.4" stroke="#263238" stroke-width="0.7" stroke-linecap="round" stroke-linejoin="round"/>
<path d="M264.131 235.2C264.131 235.2 264.964 234.339 266.364 233.1" stroke="#263238" stroke-width="0.7" stroke-linecap="round" stroke-linejoin="round"/>
<path d="M276.969 222.831C274.017 224.371 271.206 226.167 268.569 228.2" stroke="#263238" stroke-width="0.7" stroke-linecap="round" stroke-linejoin="round"/>
<path d="M281.169 257.369C283.16 256.423 285.357 255.992 287.558 256.114C289.759 256.236 291.895 256.909 293.769 258.069" stroke="#263238" stroke-width="0.7" stroke-linecap="round" stroke-linejoin="round"/>
<path d="M283.269 254.331C283.269 254.331 291.431 252.7 297.5 256.431" stroke="#263238" stroke-width="0.7" stroke-linecap="round" stroke-linejoin="round"/>
<path d="M130.2 257.131C131.607 255.856 133.276 254.903 135.089 254.339C136.903 253.776 138.818 253.615 140.7 253.869" stroke="#263238" stroke-width="0.7" stroke-linecap="round" stroke-linejoin="round"/>
<path d="M144.648 254.415C145.222 254.824 145.773 255.263 146.3 255.731" stroke="#263238" stroke-width="0.7" stroke-linecap="round" stroke-linejoin="round"/>
<path d="M138.369 251.769C139.706 251.936 141.002 252.339 142.198 252.959" stroke="#263238" stroke-width="0.7" stroke-linecap="round" stroke-linejoin="round"/>
<path d="M208.369 184.8C208.369 184.8 206.269 193.669 206.969 200.2C207.669 206.731 214.9 216.769 220.969 219.1C227.038 221.431 238.231 214.669 242.2 210.7C246.169 206.731 246.4 194.131 246.4 194.131C246.4 194.131 240.352 181.069 227.5 177.331C214.648 173.593 208.369 184.8 208.369 184.8Z" fill="#ABABAB" stroke="#263238" stroke-width="0.7" stroke-linecap="round" stroke-linejoin="round"/>
<path d="M256.62 182.973C256.62 182.973 257.838 186.62 255.493 191.233C253.148 195.846 248.619 199.745 247.401 199.346C246.183 198.947 251.188 182.252 251.188 182.252C251.188 182.252 254.513 180.383 256.62 182.973Z" fill="#ABABAB" stroke="#263238" stroke-width="0.7" stroke-linecap="round" stroke-linejoin="round"/>
<path d="M205.142 169.645C205.142 169.645 202.839 172.718 203.602 177.842C204.365 182.966 207.445 188.083 208.726 188.083C210.007 188.083 210.518 170.674 210.518 170.674C210.518 170.674 207.956 167.853 205.142 169.645Z" fill="#ABABAB" stroke="#263238" stroke-width="0.7" stroke-linecap="round" stroke-linejoin="round"/>
<path d="M208.985 176.302C208.985 176.302 207.193 191.926 209.237 198.331C211.281 204.736 215.383 214.718 221.788 217.28C228.193 219.842 242.788 208.831 245.091 204.477C247.394 200.123 253.799 181.685 253.799 181.685C255.483 179.443 256.577 176.813 256.981 174.038C257.385 171.263 257.085 168.431 256.109 165.802C252.777 156.583 234.85 150.948 227.409 151.207C219.968 151.466 212.555 157.612 212.044 162.477C211.533 167.342 208.985 176.302 208.985 176.302Z" fill="#ABABAB" stroke="#263238" stroke-width="0.7" stroke-linecap="round" stroke-linejoin="round"/>
<path d="M225.631 185.78C225.631 185.78 219.996 178.864 214.872 181.174" stroke="#263238" stroke-width="1.4" stroke-linecap="round" stroke-linejoin="round"/>
<path d="M234.591 188.853C234.591 188.853 242.291 187.061 245.861 190.393" stroke="#263238" stroke-width="1.4" stroke-linecap="round" stroke-linejoin="round"/>
<path d="M215.642 187.32C215.642 187.32 217.287 192.22 223.965 191.653" stroke="#263238" stroke-width="0.7" stroke-linecap="round" stroke-linejoin="round"/>
<path d="M234.08 194.229C234.08 194.229 235.62 197.561 242.788 196.28" stroke="#263238" stroke-width="0.7" stroke-linecap="round" stroke-linejoin="round"/>
<path d="M221.459 198.891C221.232 199.928 221.381 201.012 221.879 201.95C222.712 203.203 224.798 205.009 226.331 205.009C227.864 205.009 231.063 204.456 231.896 203.609C232.431 203.06 232.9 202.452 233.296 201.796" stroke="#263238" stroke-width="0.7" stroke-linecap="round" stroke-linejoin="round"/>
<path d="M217.98 203.483C217.98 203.483 221.48 207.515 224.385 208.488C227.29 209.461 232.729 207.788 234.262 207.235" stroke="#263238" stroke-width="0.7" stroke-linecap="round" stroke-linejoin="round"/>
<path d="M268.702 158.676C268.464 156.996 269.661 154.595 269.899 153.16C270.137 151.725 268.219 149.079 266.546 146.923C265.253 145.197 264.575 143.087 264.621 140.931C264.621 139.489 262.948 138.292 261.506 137.333C259.753 136.166 258.143 134.796 256.711 133.252C255.752 132.055 251.678 132.293 250.957 132.293C250.236 132.293 247.121 129.661 245.203 128.702C243.285 127.743 239.449 129.402 239.449 129.402C239.449 129.402 234.892 127.246 233.933 127.246C232.974 127.246 228.893 128.926 228.893 128.926C227.542 129.505 226.134 129.944 224.693 130.235C224.432 130.167 224.165 130.122 223.895 130.102C223.356 129.402 218.561 132.279 218.561 132.279L214.249 132.979L212.646 135.576C211.113 135.744 207.522 136.318 207.27 138.075C206.948 140.315 207.27 141.274 206.311 142.548C205.352 143.822 201.838 143.507 202.811 146.384C203.784 149.261 206.003 151.501 203.126 153.104C200.249 154.707 198.653 157.577 200.249 159.173C201.845 160.769 203.126 163.009 202.811 164.29C202.496 165.571 202.167 168.448 203.448 169.085C204.577 169.739 205.647 170.488 206.647 171.325L208.243 174.825L209.202 177.065C209.202 177.065 210.798 171.948 212.079 171.311C213.36 170.674 212.079 173.551 214.641 173.551C217.203 173.551 219.751 161.399 221.641 161.077C223.531 160.755 229.341 171.633 235.074 171.633C240.807 171.633 247.891 166.6 250.775 166.6C253.659 166.6 251.412 178.745 251.412 181.3C251.412 183.855 252.049 186.41 252.049 187.376C252.049 188.342 255.248 182.896 257.488 181.615C258.104 181.265 258.846 180.838 259.623 180.348C259.623 180.46 259.588 180.523 259.588 180.523C259.588 180.523 267.505 175.483 268.464 173.81C269.423 172.137 268.702 170.688 268.702 169.253C268.702 167.818 269.661 166.614 269.899 164.458C270.137 162.302 268.94 160.349 268.702 158.676Z" fill="#263238" stroke="#263238" stroke-width="0.7" stroke-linecap="round" stroke-linejoin="round"/>
<path d="M327.313 283.213H18.9" stroke="#263238" stroke-width="0.7" stroke-linecap="round" stroke-linejoin="round"/>
<path d="M293.783 262.808C293.783 262.808 285.04 259.595 278.754 262.108C272.468 264.621 257.712 270.592 247.667 272.475C238.242 274.144 228.662 274.776 219.1 274.358C210.616 274.043 205.905 275.303 204.022 276.871C202.139 278.439 195.23 287.231 195.853 288.176C196.476 289.121 197.176 289.478 200.256 288.806C201.481 288.533 204.967 284.725 204.967 284.725L211.267 281.925C211.267 281.925 204.673 289.149 205.611 290.087C206.549 291.025 208.124 289.772 209.384 288.834C210.644 287.896 213.15 285.691 213.15 285.691L218.806 283.178C218.806 283.178 212.8 287.231 212.8 289.1C212.8 290.969 214.263 289.87 216.755 288.876C217.936 288.131 219.062 287.3 220.122 286.391L224.847 285.061C227.898 286.652 231.297 287.461 234.738 287.413C238.335 287.398 241.809 286.102 244.538 283.759C244.538 283.759 266.525 286.902 277.515 285.957C288.505 285.012 302.323 286.272 307.979 282.191C313.635 278.11 306.411 267.428 305.781 266.483" fill="#ABABAB"/>
<path d="M293.783 262.808C293.783 262.808 285.04 259.595 278.754 262.108C272.468 264.621 257.712 270.592 247.667 272.475C238.242 274.144 228.662 274.776 219.1 274.358C210.616 274.043 205.905 275.303 204.022 276.871C202.139 278.439 195.23 287.231 195.853 288.176C196.476 289.121 197.176 289.478 200.256 288.806C201.481 288.533 204.967 284.725 204.967 284.725L211.267 281.925C211.267 281.925 204.673 289.149 205.611 290.087C206.549 291.025 208.124 289.772 209.384 288.834C210.644 287.896 213.15 285.691 213.15 285.691L218.806 283.178C218.806 283.178 212.8 287.231 212.8 289.1C212.8 290.969 214.263 289.87 216.755 288.876C217.936 288.131 219.062 287.3 220.122 286.391L224.847 285.061C227.898 286.652 231.297 287.461 234.738 287.413C238.335 287.398 241.809 286.102 244.538 283.759C244.538 283.759 266.525 286.902 277.515 285.957C288.505 285.012 302.323 286.272 307.979 282.191C313.635 278.11 306.411 267.428 305.781 266.483" stroke="#263238" stroke-width="0.7" stroke-linecap="round" stroke-linejoin="round"/>
<path d="M197.309 289.044C197.309 289.044 198.478 285.677 199.647 284.214C200.816 282.751 206.227 279.244 208.131 278.222C208.886 277.785 209.667 277.395 210.469 277.053" stroke="#263238" stroke-width="0.7" stroke-linecap="round" stroke-linejoin="round"/>
<path d="M211.232 281.897L216.755 278.222" stroke="#263238" stroke-width="0.7" stroke-linecap="round" stroke-linejoin="round"/>
<path d="M218.771 283.15L223.923 280.56" stroke="#263238" stroke-width="0.7" stroke-linecap="round" stroke-linejoin="round"/>
<path d="M293.783 262.808C289.114 261.695 282.52 260.603 278.754 262.108C273.154 264.341 260.918 269.29 251.209 271.691C252.585 273.205 253.381 275.156 253.456 277.2C253.566 279.762 253.215 282.322 252.42 284.76C259.819 285.593 270.739 286.559 277.501 285.978C288.491 285.033 302.309 286.293 307.965 282.212C313.621 278.131 306.397 267.449 305.767 266.504" fill="#19B0B6"/>
<path d="M293.783 262.808C289.114 261.695 282.52 260.603 278.754 262.108C273.154 264.341 260.918 269.29 251.209 271.691C252.585 273.205 253.381 275.156 253.456 277.2C253.566 279.762 253.215 282.322 252.42 284.76C259.819 285.593 270.739 286.559 277.501 285.978C288.491 285.033 302.309 286.293 307.965 282.212C313.621 278.131 306.397 267.449 305.767 266.504" stroke="#263238" stroke-width="0.7" stroke-linecap="round" stroke-linejoin="round"/>
<path d="M127.96 261.863C128.548 260.274 132.86 256.473 138.663 257.488C144.466 258.503 151.053 264.95 154.819 269.906C158.585 274.862 161.588 276.206 161.588 276.206L157.15 289.765C157.15 289.765 154.42 289.107 149.296 287.805C144.172 286.503 132.706 284.809 127.435 283.171C122.164 281.533 119.917 275.863 121.065 270.571C121.651 267.63 122.652 264.787 124.04 262.129" fill="#19B0B6"/>
<path d="M127.96 261.863C128.548 260.274 132.86 256.473 138.663 257.488C144.466 258.503 151.053 264.95 154.819 269.906C158.585 274.862 161.588 276.206 161.588 276.206L157.15 289.765C157.15 289.765 154.42 289.107 149.296 287.805C144.172 286.503 132.706 284.809 127.435 283.171C122.164 281.533 119.917 275.863 121.065 270.571C121.651 267.63 122.652 264.787 124.04 262.129" stroke="#263238" stroke-width="0.7" stroke-linecap="round" stroke-linejoin="round"/>
<path d="M154.819 269.906C154.42 269.388 153.993 268.856 153.545 268.31C150.262 269.619 146.097 272.034 143.892 276.29C141.687 280.546 141.673 284.06 142.1 286.3C144.9 286.832 147.483 287.336 149.282 287.791C154.406 289.093 157.136 289.751 157.136 289.751L161.574 276.192C161.574 276.192 158.578 274.869 154.819 269.906Z" fill="#ABABAB" stroke="#263238" stroke-width="0.7" stroke-linecap="round" stroke-linejoin="round"/>
<path d="M153.006 283.15C152.712 285.25 152.068 287.651 155.106 288.981C158.144 290.311 161.168 293.594 163.079 294.364C165.391 295.25 167.807 295.833 170.268 296.1C172.214 296.226 174.615 296.863 178.43 295.799C182.245 294.735 182.14 293.755 182.14 293.755C182.14 293.755 184.52 293.846 185.696 293.265C186.872 292.684 186.046 291.228 184.618 290.654C183.19 290.08 181.44 289.31 181.44 289.31C181.44 289.31 183.61 287.308 183.064 286.811L182.525 286.314C182.525 286.314 185.031 286.608 185.248 285.81C185.465 285.012 183.89 281.484 183.26 278.516C182.63 275.548 181.307 275.947 178.892 275.471C176.477 274.995 173.187 275.604 168.847 274.68C164.507 273.756 158.221 275.31 155.736 275.968" fill="#ABABAB"/>
<path d="M153.006 283.15C152.712 285.25 152.068 287.651 155.106 288.981C158.144 290.311 161.168 293.594 163.079 294.364C165.391 295.25 167.807 295.833 170.268 296.1C172.214 296.226 174.615 296.863 178.43 295.799C182.245 294.735 182.14 293.755 182.14 293.755C182.14 293.755 184.52 293.846 185.696 293.265C186.872 292.684 186.046 291.228 184.618 290.654C183.19 290.08 181.44 289.31 181.44 289.31C181.44 289.31 183.61 287.308 183.064 286.811L182.525 286.314C182.525 286.314 185.031 286.608 185.248 285.81C185.465 285.012 183.89 281.484 183.26 278.516C182.63 275.548 181.307 275.947 178.892 275.471C176.477 274.995 173.187 275.604 168.847 274.68C164.507 273.756 158.221 275.31 155.736 275.968" stroke="#263238" stroke-width="0.7" stroke-linecap="round" stroke-linejoin="round"/>
<path d="M169.953 262.955L173.915 276.955L177.079 278.46L172.389 262.248C172.34 262.076 172.255 261.916 172.139 261.78C172.023 261.643 171.88 261.533 171.718 261.456C171.557 261.379 171.381 261.338 171.202 261.334C171.023 261.331 170.845 261.366 170.681 261.436C170.395 261.556 170.162 261.777 170.028 262.057C169.894 262.337 169.867 262.657 169.953 262.955Z" fill="#263238"/>
<path d="M172.2 275.884C172.2 275.884 179.13 279.58 179.606 279.769C179.935 279.902 183.022 285.061 184.002 287.539C184.457 288.673 183.946 289.324 182.882 289.912L181.447 289.331L172.83 283.906L169.673 282.401" fill="#ABABAB"/>
<path d="M172.2 275.884C172.2 275.884 179.13 279.58 179.606 279.769C179.935 279.902 183.022 285.061 184.002 287.539C184.457 288.673 183.946 289.324 182.882 289.912L181.447 289.331L172.83 283.906L169.673 282.401" stroke="#263238" stroke-width="0.7" stroke-linecap="round" stroke-linejoin="round"/>
<path d="M167.363 287.959C167.363 287.959 174.111 291.97 175.532 292.705C176.953 293.44 182.14 293.776 182.14 293.776" stroke="#263238" stroke-width="0.7" stroke-linecap="round" stroke-linejoin="round"/>
<path d="M164.836 291.9C164.836 291.9 170.499 295.022 171.612 295.4C172.725 295.778 175.112 296.436 175.112 296.436" stroke="#263238" stroke-width="0.7" stroke-linecap="round" stroke-linejoin="round"/>
<path d="M120.988 317.919L146.832 294.147L89.894 290.472L120.988 317.919Z" fill="#CCCCCC" stroke="#263238" stroke-width="0.7" stroke-linecap="round" stroke-linejoin="round"/>
<path d="M119.896 313.131L131.53 302.106L118.055 301.294L119.896 313.131Z" fill="#263238" stroke="#263238" stroke-width="0.7" stroke-linecap="round" stroke-linejoin="round"/>
<path d="M40.656 251.16L125.895 254.933L120.988 317.919L35 313.768L40.656 251.16Z" fill="#A6A6A6" stroke="#263238" stroke-width="0.7" stroke-linecap="round" stroke-linejoin="round"/>
<path d="M35.3779 309.575C40.4179 308.833 48.9229 306.852 63.2869 302.204C97.4819 291.137 101.787 260.204 125.895 254.933L40.6559 251.16L35.3779 309.575Z" fill="#263238" stroke="#263238" stroke-width="0.7" stroke-linecap="round" stroke-linejoin="round"/>
<path d="M79.884 288.12C83.4948 288.12 86.422 285.87 86.422 283.094C86.422 280.318 83.4948 278.068 79.884 278.068C76.2732 278.068 73.346 280.318 73.346 283.094C73.346 285.87 76.2732 288.12 79.884 288.12Z" fill="white" stroke="#263238" stroke-width="0.7" stroke-linecap="round" stroke-linejoin="round"/>
</svg>
